<?xml version="1.0" encoding="utf-8"?>
<!-- Generator: Adobe Illustrator 13.0.0, SVG Export Plug-In . SVG Version: 6.00 Build 14948)  -->
<!DOCTYPE svg PUBLIC "-//W3C//DTD SVG 1.0//EN" "http://www.w3.org/TR/2001/REC-SVG-20010904/DTD/svg10.dtd">
<svg version="1.0" id="Ebene_1" xmlns="http://www.w3.org/2000/svg" xmlns:xlink="http://www.w3.org/1999/xlink" x="0px" y="0px"
	 width="439.37px" height="113.258px" viewBox="0 0 439.37 113.258" enable-background="new 0 0 439.37 113.258"
	 xml:space="preserve">
<path fill-rule="evenodd" clip-rule="evenodd" d="M229.673,1.284l-0.391,2.884l0.391,2.884l0.13,0.28l0.205,0.242l0.241,0.205
	l0.278,0.205l0.317,0.129l0.166,0.056l0.205,0.056l0.427,0.056l0.467,0.055l0.205-0.036l0.223-0.019l0.186-0.038l0.036-0.018h0.056
	h0.113L233,8.188l0.039-0.019h0.055l0.188-0.056l0.148-0.075l0.074-0.038l0.036-0.017h0.056l0.133-0.112l0.148-0.093l0.259-0.205
	l0.036-0.074l0.02-0.038l0.037-0.019l0.112-0.111l0.093-0.149l0.112-0.131l0.278-2.884l-0.278-2.884l-0.205-0.316l-0.112-0.149
	l-0.093-0.111l-0.259-0.225l-0.281-0.167l-0.166-0.093l-0.148-0.056l-0.354-0.093l-0.391-0.056L232.109,0l-0.467,0.018l-0.427,0.056
	l-0.371,0.093l-0.317,0.149l-0.278,0.167l-0.241,0.225l-0.205,0.26L229.673,1.284L229.673,1.284L229.673,1.284z M231.011,4.168
	l0.188-2.271l0.036-0.186l0.073-0.149l0.205-0.224l0.112-0.094l0.149-0.037l0.148-0.037l0.186,0.019l0.91,0.707l0.186,2.271
	l-0.186,2.252l-0.036,0.018l-0.02,0.037l-0.036,0.074l-0.037,0.02l-0.02,0.037l-0.037,0.074l-0.111,0.111l-0.057,0.038l-0.037,0.056
	l-0.072,0.019l-0.059,0.038l-0.11,0.056l-0.149,0.037h-0.072h-0.037h-0.02v0.018l-0.186-0.018l-0.148-0.037l-0.149-0.056
	l-0.112-0.056l-0.112-0.094l-0.093-0.111l-0.073-0.131l-0.036-0.129L231.011,4.168L231.011,4.168L231.011,4.168z"/>
<polygon fill-rule="evenodd" clip-rule="evenodd" points="215.63,8.133 215.63,0.093 213.92,0.093 213.92,8.133 215.63,8.133 
	215.63,8.133 "/>
<path fill-rule="evenodd" clip-rule="evenodd" d="M198.577,0.093h-3.107v8.041h1.73V4.875h1.283l0.112-0.018h0.131l0.111-0.018
	h0.129l0.224-0.057l0.224-0.055l0.186-0.093l0.186-0.094l0.148-0.13l0.076-0.075l0.036-0.037l0.019-0.018h0.037l0.111-0.168
	l0.112-0.167l0.075-0.205l0.038-0.111V3.592l0.019-0.02l0.037-0.037V3.462V3.424l0.02-0.019l0.037-0.111V3.219V3.182l0.019-0.018
	l0.038-0.111l0.02-0.261l0.018-0.261l-0.018-0.315l-0.02-0.28l-0.056-0.26l-0.037-0.224l-0.094-0.243l-0.073-0.186l-0.112-0.186
	l-0.111-0.15l-0.149-0.149l-0.149-0.111l-0.186-0.112l-0.167-0.073l-0.223-0.076l-0.205-0.037l-0.242-0.038H198.577L198.577,0.093
	L198.577,0.093z M198.018,1.34l0.205,0.019l0.186,0.056l0.149,0.093l0.13,0.13l0.093,0.167l0.075,0.205l0.037,0.242l0.02,0.278
	l-0.186,0.82l-0.615,0.278H197.2V1.34H198.018L198.018,1.34L198.018,1.34z"/>
<polygon fill-rule="evenodd" clip-rule="evenodd" points="180.2,2.345 181.912,2.345 181.894,2.047 181.875,1.787 181.837,1.525 
	181.781,1.302 181.688,1.08 181.596,0.894 181.484,0.726 181.354,0.577 181.187,0.428 181.02,0.316 180.814,0.205 180.609,0.13 
	180.367,0.056 180.126,0.018 179.568,0 178.917,0.018 178.621,0.056 178.359,0.13 177.895,0.298 177.689,0.409 177.522,0.559 
	177.354,0.688 177.226,0.856 177.021,1.246 176.926,1.452 176.89,1.693 176.852,1.954 176.852,2.252 176.871,2.643 176.908,2.81 
	176.983,2.997 177.151,3.313 177.262,3.462 177.411,3.629 179.755,5.266 180.293,6.159 180.274,6.197 180.274,6.252 180.274,6.364 
	180.238,6.55 180.164,6.7 180.089,6.83 180.015,6.867 179.977,6.886 179.958,6.924 179.829,6.998 179.662,7.035 179.475,7.053 
	178.563,6.7 178.471,5.694 176.778,5.694 176.741,5.992 176.759,6.29 176.778,6.569 176.852,6.83 176.908,7.053 177.021,7.276 
	177.131,7.481 177.28,7.667 177.429,7.816 177.616,7.946 177.82,8.058 178.062,8.17 178.303,8.226 178.583,8.282 178.879,8.319 
	179.215,8.337 181.094,7.853 181.298,7.705 181.484,7.536 181.632,7.333 181.763,7.109 181.855,6.849 181.93,6.588 181.986,6.29 
	181.986,6.123 182.004,5.974 181.484,4.541 180.293,3.629 179.122,2.979 178.563,2.103 178.563,1.861 178.621,1.693 178.676,1.525 
	178.787,1.415 178.899,1.302 179.066,1.246 179.233,1.191 179.475,1.191 179.624,1.173 179.773,1.228 179.902,1.32 180.015,1.452 
	180.089,1.62 180.144,1.823 180.182,2.066 180.2,2.345 180.2,2.345 "/>
<polygon fill-rule="evenodd" clip-rule="evenodd" points="187.621,24.956 189.779,25.252 194.949,25.252 194.949,16.284 
	176.778,16.284 176.778,81.79 194.949,81.79 194.949,73.023 189.779,73.023 187.621,73.265 187.808,71.015 187.808,52.461 
	187.621,50.208 189.779,50.488 194.949,50.488 194.949,41.778 187.621,41.964 187.808,39.806 187.808,27.225 187.621,24.956 
	187.621,24.956 "/>
<path fill-rule="evenodd" clip-rule="evenodd" d="M216.355,16.284h-15.082l-5.338,65.506h9.875l0.8-13.754h4.947l1.003,13.754
	h11.031L216.355,16.284L216.355,16.284L216.355,16.284z M208.396,28.509h0.576l1.878,28.845l0.465,2.158l-2.251-0.242h-0.371
	l-1.824,0.242l0.279-1.786L208.396,28.509L208.396,28.509L208.396,28.509z"/>
<path fill-rule="evenodd" clip-rule="evenodd" d="M272.15,0.093h-2.25l-2.249,8.041h1.709l0.446-1.807h2.252l0.466,1.807h1.821
	L272.15,0.093L272.15,0.093L272.15,0.093z M271.704,5.173h-1.618l0.82-3.553L271.704,5.173L271.704,5.173L271.704,5.173z"/>
<polygon fill-rule="evenodd" clip-rule="evenodd" points="274.959,16.377 274.494,16.433 274.067,16.544 273.641,16.675 
	273.25,16.842 272.485,17.232 271.797,17.735 271.297,18.07 270.867,18.424 270.479,18.796 270.142,19.187 269.826,19.577 
	269.565,20.006 269.344,20.433 269.175,20.898 269.009,21.383 268.877,21.959 268.748,22.611 268.674,23.355 268.599,24.175 
	268.563,25.086 268.525,26.071 268.543,27.15 268.543,38.28 268.525,38.745 268.543,39.21 268.599,40.085 268.691,40.904 
	268.823,41.686 268.989,42.374 269.194,43.024 269.436,43.602 269.715,44.142 270.012,44.606 270.383,45.091 270.83,45.575 
	271.389,46.06 271.982,46.543 272.654,47.046 273.398,47.529 274.253,48.049 281.301,52.275 283.273,53.819 283.553,69.674 
	283.535,69.859 283.535,70.064 283.516,70.438 283.459,70.772 283.423,71.106 283.348,71.405 283.273,71.683 283.162,71.925 
	283.105,72.037 283.068,72.169 282.92,72.354 282.847,72.428 282.808,72.464 282.788,72.483 282.788,72.521 282.754,72.521 
	282.734,72.54 282.695,72.577 282.622,72.652 282.586,72.652 282.566,72.669 282.529,72.708 282.453,72.782 282.344,72.818 
	282.305,72.818 282.287,72.838 282.251,72.874 282.065,72.95 281.841,72.987 281.636,73.023 281.377,72.987 281.154,72.95 
	280.93,72.874 280.742,72.782 280.391,72.521 280.242,72.354 280.129,72.169 280,71.925 279.907,71.683 279.814,71.405 
	279.758,71.106 279.666,70.438 279.646,70.064 279.666,69.674 279.666,55.01 268.543,55.01 268.543,72.206 268.543,72.782 
	268.582,73.36 268.618,73.897 268.691,74.437 268.768,74.94 268.877,75.442 269.009,75.929 269.175,76.409 269.324,76.839 
	269.51,77.286 269.715,77.694 269.956,78.104 270.197,78.478 270.479,78.849 270.757,79.183 271.092,79.537 271.463,79.892 
	271.873,80.226 272.28,80.504 272.727,80.784 273.156,81.007 273.621,81.212 274.084,81.38 274.588,81.51 282.195,81.976 
	288.816,81.51 289.263,81.36 289.707,81.192 289.912,81.083 290.137,80.989 290.34,80.878 290.564,80.784 290.955,80.523 
	291.141,80.374 291.232,80.299 291.346,80.245 291.418,80.152 291.512,80.077 291.697,79.928 292.07,79.593 292.199,79.407 
	292.349,79.239 292.48,79.054 292.629,78.886 292.889,78.515 293.149,78.141 293.354,77.733 293.557,77.323 293.745,76.876 
	293.931,76.448 294.061,75.966 294.061,75.89 294.08,75.833 294.116,75.722 294.191,75.499 294.302,74.996 294.338,74.737 
	294.338,74.661 294.357,74.605 294.395,74.493 294.395,74.345 294.395,74.271 294.414,74.215 294.451,73.954 294.451,73.805 
	294.451,73.731 294.468,73.675 294.507,73.414 294.543,72.857 294.561,72.298 294.561,55.01 294.543,54.582 294.543,54.19 
	294.507,53.428 294.432,52.702 294.357,52.051 294.229,51.437 294.152,51.139 294.097,50.879 293.931,50.376 293.836,50.134 
	293.762,49.93 293.484,49.483 293.186,49.055 292.832,48.645 292.441,48.236 291.978,47.827 291.475,47.435 290.918,47.046 
	290.34,46.672 281.301,41.071 279.943,39.899 279.871,39.713 279.814,39.508 279.722,39.024 279.683,38.727 279.666,38.41 
	279.666,38.075 279.666,37.722 279.666,28.211 279.646,27.804 279.666,27.432 279.758,26.779 279.814,26.463 279.907,26.202 
	280,25.96 280.129,25.755 280.242,25.55 280.391,25.384 280.742,25.142 280.93,25.049 281.154,24.992 281.377,24.956 
	281.636,24.956 281.841,24.956 282.065,24.992 282.251,25.049 282.453,25.16 282.622,25.252 282.788,25.402 282.92,25.57 
	283.068,25.792 283.162,25.997 283.273,26.258 283.348,26.519 283.423,26.834 283.459,27.15 283.516,27.523 283.535,27.896 
	283.553,28.324 283.553,39.099 294.561,39.099 294.561,26.687 294.543,25.904 294.507,25.179 294.451,24.453 294.395,23.801 
	294.285,23.15 294.172,22.555 294.043,21.979 293.892,21.457 293.706,20.917 293.504,20.453 293.279,19.986 293.057,19.596 
	292.778,19.205 292.498,18.851 292.199,18.535 291.885,18.257 291.512,17.977 291.121,17.735 290.693,17.512 290.229,17.307 
	289.707,17.102 289.168,16.935 288.574,16.768 287.961,16.637 287.271,16.488 286.564,16.377 285.801,16.284 285.039,16.228 
	284.204,16.152 283.328,16.115 282.417,16.097 281.489,16.097 274.959,16.377 274.959,16.377 "/>
<polygon fill-rule="evenodd" clip-rule="evenodd" points="254.52,0.093 252.993,0.093 252.993,5.694 252.9,5.694 250.838,0.093 
	248.566,0.093 248.566,8.133 250.112,8.133 250.112,2.252 252.363,8.133 254.52,8.133 254.52,0.093 254.52,0.093 "/>
<path fill-rule="evenodd" clip-rule="evenodd" d="M249.834,18.814l-0.317-0.317l-0.317-0.278l-0.371-0.278l-0.389-0.242
	l-0.466-0.243l-0.466-0.205l-0.501-0.186l-0.54-0.149l-0.615-0.167l-0.612-0.131l-0.651-0.111l-0.689-0.075l-0.725-0.075
	l-0.762-0.037l-0.801-0.036h-0.835h-14.897V81.79h11.104V54.005l1.096-0.093h0.371l0.354,0.037l0.317,0.038l0.298,0.093l0.239,0.093
	l0.225,0.13l0.205,0.15l0.166,0.186l0.112,0.168l0.112,0.224l0.073,0.26l0.093,0.316l0.039,0.354l0.018,0.186l0.039,0.224
	l0.017,0.466v0.242l0.02,0.278V81.79h11.306V57.634l-0.036-0.799l-0.056-0.726l-0.113-0.727l-0.129-0.652l-0.203-0.651l-0.205-0.576
	l-0.261-0.541l-0.278-0.501l-0.354-0.503l-0.391-0.429l-0.223-0.224l-0.205-0.186l-0.447-0.354l-0.502-0.354l-0.54-0.278
	l-0.576-0.241l-0.612-0.205v-0.204l0.744-0.41l0.334-0.205l0.335-0.186l0.612-0.409l0.56-0.373l0.483-0.409l0.093-0.111l0.112-0.094
	l0.205-0.185l0.352-0.411l0.298-0.371l0.222-0.447l0.094-0.261l0.114-0.26l0.073-0.298l0.093-0.298l0.149-0.633l0.036-0.372
	l0.056-0.371l0.037-0.392v-0.112v-0.055l0.02-0.038l0.037-0.186v-0.224v-0.111v-0.057l0.02-0.036l0.036-0.428v-0.465v-0.243
	l0.017-0.223V29.125l-0.017-0.986l-0.02-0.913l-0.056-0.874l-0.057-0.837l-0.093-0.801l-0.056-0.391l-0.037-0.353l-0.073-0.373
	l-0.056-0.335l-0.11-0.651l-0.095-0.334l-0.074-0.298l-0.168-0.577l-0.186-0.54l-0.186-0.483l-0.225-0.466l-0.223-0.409
	l-0.261-0.372L249.834,18.814L249.834,18.814L249.834,18.814z M240.347,25.96l0.43,3.071v11.779l-0.02,0.148v0.169v0.316
	l-0.017,0.018V41.5v0.073v0.15v0.298l-0.039,0.26l-0.018,0.26l-0.039,0.483l-0.037,0.093l-0.017,0.114l-0.039,0.204l-0.073,0.354
	l-0.112,0.296l-0.112,0.242l-0.166,0.15l-0.186,0.147l-0.262,0.112l-0.277,0.112l-0.354,0.074h-0.112h-0.054l-0.039,0.019
	l-0.186,0.037l-0.446,0.038h-0.242l-0.223,0.019h-1.003l0.278-1.62V27.15l-0.186-2.289l0.91,0.28h0.726h0.315l0.297,0.038
	l0.262,0.056l0.259,0.111l0.225,0.093l0.205,0.148l0.186,0.167L240.347,25.96L240.347,25.96L240.347,25.96z"/>
<polygon fill-rule="evenodd" clip-rule="evenodd" points="310.947,0.093 306.521,0.093 306.521,8.133 311.04,8.133 311.04,6.886 
	308.252,6.886 308.252,4.597 310.762,4.597 310.762,3.351 308.252,3.351 308.252,1.34 310.947,1.34 310.947,0.093 310.947,0.093 "/>
<path fill-rule="evenodd" clip-rule="evenodd" d="M322.534,18.257l-0.354-0.28l-0.388-0.242l-0.43-0.224l-0.427-0.205l-0.501-0.205
	l-0.522-0.167l-0.576-0.167l-0.576-0.131l-0.652-0.149l-0.688-0.111l-0.726-0.093l-0.745-0.057l-0.798-0.075l-0.837-0.037
	l-0.875-0.018h-0.873h-1.043l-0.986,0.018l-0.947,0.037l-0.894,0.075l-0.854,0.057l-0.801,0.093l-0.762,0.111l-0.688,0.149
	l-0.688,0.131l-0.613,0.167l-0.576,0.167l-0.521,0.205l-0.484,0.205l-0.427,0.224l-0.391,0.242l-0.335,0.28l-0.334,0.278
	l-0.298,0.316l-0.298,0.354l-0.242,0.427l-0.241,0.428l-0.205,0.503l-0.205,0.521l-0.166,0.577l-0.166,0.576l-0.132,0.652
	l-0.129,0.687l-0.076,0.726l-0.073,0.763l-0.036,0.801l-0.039,0.837v0.894v42.261v1.079l0.039,1.043l0.036,0.93l0.073,0.894
	l0.076,0.781l0.036,0.374l0.073,0.354l0.132,0.633l0.073,0.297l0.093,0.279l0.169,0.521l0.092,0.242l0.13,0.259l0.241,0.485
	l0.318,0.465l0.316,0.427l0.389,0.43l0.41,0.41l0.464,0.391l0.28,0.202l0.352,0.205l0.391,0.186l0.467,0.188l0.483,0.149
	l0.557,0.148l0.615,0.129l0.315,0.057l0.354,0.073l0.334,0.039l0.371,0.054l0.765,0.093l0.817,0.075l0.875,0.074l0.91,0.039
	l0.467,0.02l0.5,0.033l1.023,0.02l1.098,0.039l0.875-0.039l0.092-0.02h0.113h0.222h0.446l0.408-0.033l0.412-0.02l0.389-0.039
	l0.41-0.018l0.166-0.037l0.186-0.02l0.373-0.036l0.166-0.039l0.186-0.017l0.374-0.037l0.315-0.076l0.336-0.056l0.315-0.073
	l0.335-0.057l0.056-0.036l0.073-0.02l0.148-0.036l0.301-0.076l0.259-0.093l0.278-0.073l0.244-0.112l0.259-0.093l0.241-0.112
	l0.113-0.056l0.129-0.037l0.093-0.073l0.112-0.056l0.223-0.113l0.188-0.129l0.203-0.112l0.168-0.149l0.186-0.129l0.334-0.262
	l0.262-0.336l0.259-0.352l0.225-0.391l0.222-0.43l0.188-0.484l0.093-0.258l0.109-0.242l0.074-0.281l0.095-0.261l0.075-0.296
	l0.037-0.15l0.018-0.074l0.039-0.056l0.109-0.651l0.057-0.335l0.075-0.315l0.034-0.373l0.02-0.186l0.039-0.168l0.037-0.371
	l0.017-0.186l0.039-0.169l0.017-0.41l0.039-0.391l0.018-0.407l0.037-0.41v-0.447v-0.225v-0.112l0.02-0.093l0.036-0.874v-43.08
	l-0.036-0.801l-0.039-0.763l-0.055-0.725l-0.056-0.69l-0.093-0.669l-0.112-0.615l-0.13-0.576l-0.129-0.539l-0.188-0.54l-0.186-0.465
	l-0.205-0.466l-0.223-0.391l-0.262-0.391l-0.258-0.334l-0.281-0.317L322.534,18.257L322.534,18.257L322.534,18.257z M310.129,28.324
	l0.018-0.819l0.096-0.688l0.129-0.595l0.205-0.484l0.242-0.409l0.316-0.279l0.166-0.131l0.203-0.074l0.205-0.057l0.242-0.018
	l0.225-0.018l0.241,0.036l0.205,0.057l0.222,0.112l0.169,0.111l0.186,0.168l0.149,0.167l0.148,0.242l0.112,0.241l0.112,0.28
	l0.073,0.298l0.093,0.353l0.037,0.354l0.056,0.429l0.017,0.427l0.02,0.483v41.35l-0.02,0.374l-0.017,0.072v0.094v0.186l-0.056,0.336
	l-0.037,0.318l-0.039,0.053l-0.018,0.076l-0.036,0.148l-0.073,0.262l-0.112,0.223l-0.095,0.225l-0.149,0.166l-0.073,0.072
	l-0.037,0.039l-0.02,0.018v0.039h-0.036l-0.02,0.018l-0.036,0.039l-0.076,0.072h-0.034l-0.02,0.02l-0.039,0.037l-0.073,0.073
	l-0.205,0.075l-0.203,0.074l-0.225,0.036l-0.222,0.02l-0.241-0.02l-0.225-0.036l-0.391-0.149l-0.186-0.13l-0.149-0.129l-0.149-0.168
	l-0.111-0.166l-0.13-0.225l-0.093-0.223l-0.073-0.262l-0.056-0.277l-0.057-0.318l-0.039-0.336l-0.018-0.352v-0.374V28.324
	L310.129,28.324L310.129,28.324z"/>
<polygon fill-rule="evenodd" clip-rule="evenodd" points="292.127,0.615 291.922,0.446 291.717,0.335 291.475,0.223 291.252,0.148 
	290.991,0.074 290.732,0.038 290.432,0 290.156,0 289.689,0.018 289.299,0.074 288.945,0.167 288.631,0.316 288.332,0.483 
	288.091,0.708 287.886,0.968 287.717,1.284 287.329,4.076 287.329,4.635 287.346,5.173 287.383,5.658 287.459,6.104 287.531,6.476 
	287.645,6.812 287.754,7.091 287.902,7.333 288.055,7.555 288.257,7.76 288.498,7.928 288.797,8.076 288.945,8.114 289.131,8.17 
	289.521,8.263 289.951,8.319 290.174,8.319 290.432,8.337 292.778,8.039 292.778,3.981 290.156,3.981 290.156,5.173 291.064,5.173 
	291.064,6.979 290.249,7.147 289.243,6.606 289.168,6.439 289.113,6.234 289.058,5.992 289.019,5.713 288.982,5.36 288.965,5.006 
	288.965,4.597 288.965,4.168 289.15,2.103 289.207,1.861 289.299,1.693 289.502,1.415 289.744,1.246 290.061,1.191 290.972,1.62 
	291.064,2.53 292.778,2.53 292.127,0.615 292.127,0.615 "/>
<polygon fill-rule="evenodd" clip-rule="evenodd" points="376.229,1.433 378.032,1.433 378.032,8.133 379.761,8.133 379.761,1.433 
	381.584,1.433 381.584,0.093 376.229,0.093 376.229,1.433 376.229,1.433 "/>
<polygon fill-rule="evenodd" clip-rule="evenodd" points="358.596,1.284 358.244,4.168 358.596,7.053 358.729,7.333 358.934,7.574 
	359.175,7.779 359.305,7.872 359.473,7.984 359.787,8.114 359.953,8.17 360.158,8.226 360.344,8.244 360.568,8.282 361.033,8.337 
	361.33,8.319 361.611,8.282 361.87,8.226 361.982,8.188 361.982,8.17 362,8.17 362.039,8.17 362.111,8.17 362.148,8.133 
	362.148,8.114 362.168,8.114 362.205,8.114 362.316,8.076 362.521,7.965 362.596,7.891 362.632,7.853 362.632,7.834 362.651,7.834 
	362.688,7.834 362.764,7.76 362.801,7.723 362.801,7.705 362.817,7.705 362.856,7.705 362.912,7.593 362.986,7.5 363.042,7.388 
	363.115,7.295 363.228,7.053 363.32,6.792 363.32,6.7 363.34,6.625 363.377,6.476 363.377,6.383 363.396,6.309 363.433,6.159 
	363.469,5.807 363.469,5.602 363.488,5.416 361.758,5.416 361.665,6.514 361.033,7.053 360.85,7.035 360.698,6.998 360.549,6.942 
	360.438,6.886 360.327,6.792 360.234,6.681 360.158,6.55 360.122,6.421 359.937,4.168 360.122,1.898 360.158,1.712 360.234,1.563 
	360.438,1.34 360.549,1.246 360.698,1.209 360.85,1.173 361.033,1.191 361.572,1.525 361.665,2.623 363.396,2.623 363.377,2.289 
	363.357,1.992 363.32,1.693 363.264,1.452 363.172,1.209 363.078,1.006 362.969,0.801 362.837,0.651 362.668,0.483 362.502,0.354 
	362.297,0.223 362.095,0.148 361.851,0.074 361.592,0.038 361.313,0 361.033,0 360.568,0.018 360.158,0.074 359.787,0.167 
	359.473,0.316 359.175,0.483 358.934,0.708 358.729,0.968 358.596,1.284 358.596,1.284 "/>
<path fill-rule="evenodd" clip-rule="evenodd" d="M380.822,16.284h-13.986V81.79h14.08l0.092-0.02h0.113h0.222h0.446l0.094-0.02
	h0.109h0.225h0.447l0.391-0.036l0.407-0.02l0.394-0.036l0.407-0.02l0.169-0.037l0.186-0.02l0.371-0.037l0.168-0.036l0.186-0.02
	l0.354-0.036l0.315-0.074l0.335-0.056l0.651-0.112l0.056-0.037l0.074-0.02l0.148-0.036l0.298-0.075l0.261-0.094l0.279-0.072
	l0.502-0.186l0.484-0.188l0.427-0.222l0.391-0.223l0.354-0.262l0.314-0.261l0.262-0.315l0.129-0.188l0.148-0.166l0.11-0.205
	l0.132-0.186l0.112-0.205l0.13-0.188l0.036-0.13l0.056-0.112l0.113-0.223l0.036-0.129l0.056-0.112l0.113-0.222l0.166-0.523
	l0.075-0.277l0.093-0.262v-0.093l0.018-0.073l0.039-0.151l0.072-0.298v-0.093l0.02-0.073l0.037-0.148l0.073-0.299l0.095-0.668
	l0.037-0.354l0.057-0.337l0.017-0.371l0.036-0.354v-0.205l0.02-0.186l0.037-0.371v-0.41v-0.205l0.02-0.186v-0.43l0.02-0.408v-42.17
	l-0.02-0.912l-0.02-0.874l-0.057-0.838l-0.053-0.763l-0.094-0.763l-0.095-0.688l-0.073-0.354l-0.057-0.316l-0.111-0.614
	l-0.094-0.316l-0.072-0.279l-0.169-0.54l-0.186-0.501l-0.186-0.466l-0.222-0.427l-0.225-0.391l-0.262-0.354l-0.259-0.279
	l-0.335-0.298l-0.354-0.26l-0.41-0.242l-0.428-0.205l-0.5-0.205l-0.503-0.186l-0.56-0.167l-0.576-0.131l-0.651-0.149l-0.669-0.111
	l-0.725-0.094l-0.745-0.073l-0.798-0.076l-0.838-0.037l-0.874-0.018H380.822L380.822,16.284L380.822,16.284z M377.939,26.872
	l-0.278-2.01h0.669h0.52l0.504,0.038l0.427,0.038l0.407,0.093l0.338,0.093l0.297,0.129l0.242,0.15l0.223,0.186l0.056,0.093
	l0.073,0.131l0.132,0.278l0.11,0.336l0.039,0.187l0.056,0.222l0.056,0.428l0.055,0.503l0.036,0.558l0.02,0.614v40.644l-0.02,0.262
	v0.261l-0.017,0.11v0.129v0.242l-0.037,0.205l-0.02,0.225l-0.037,0.391l-0.056,0.148l-0.036,0.168l-0.076,0.299l-0.109,0.222
	l-0.113,0.205l-2.641,0.669h-1.097l0.278-2.383V26.872L377.939,26.872L377.939,26.872z"/>
<path fill-rule="evenodd" clip-rule="evenodd" d="M343.029,0.093h-2.25l-2.156,8.041h1.616l0.446-1.807h2.252l0.482,1.807h1.805
	L343.029,0.093L343.029,0.093L343.029,0.093z M342.695,5.173h-1.639l0.729-3.553L342.695,5.173L342.695,5.173L342.695,5.173z"/>
<polygon fill-rule="evenodd" clip-rule="evenodd" points="361.943,16.284 350.637,16.284 350.637,81.79 361.943,81.79 
	361.943,16.284 361.943,16.284 "/>
<polygon fill-rule="evenodd" clip-rule="evenodd" points="340.779,16.284 329.771,16.284 329.771,81.79 347.661,81.79 
	347.661,73.023 342.695,73.023 340.5,73.265 340.779,71.015 340.779,16.284 340.779,16.284 "/>
<path fill-rule="evenodd" clip-rule="evenodd" d="M418.094,4.168l-0.354-2.884l-0.202-0.316l-0.113-0.149l-0.092-0.111l-0.262-0.225
	l-0.278-0.167l-0.169-0.093l-0.148-0.056l-0.354-0.093l-0.389-0.056L415.303,0l-0.464,0.018l-0.43,0.056l-0.371,0.093l-0.315,0.149
	l-0.297,0.167l-0.242,0.225l-0.205,0.26l-0.132,0.316l-0.368,2.884l0.368,2.884l0.132,0.28l0.205,0.242l0.242,0.205l0.129,0.093
	l0.168,0.112l0.315,0.129l0.169,0.056l0.202,0.056l0.43,0.056l0.464,0.055l0.205-0.036l0.225-0.019l0.186-0.038l0.037-0.018h0.056
	h0.11l0.075-0.038l0.036-0.019h0.057l0.186-0.056l0.148-0.075l0.076-0.038l0.037-0.017h0.056l0.13-0.112l0.148-0.093l0.262-0.205
	l0.036-0.074l0.02-0.038l0.036-0.019l0.113-0.111l0.092-0.149l0.11-0.131L418.094,4.168L418.094,4.168L418.094,4.168z
	 M414.393,1.898l0.036-0.186l0.073-0.149l0.076-0.131l0.111-0.093l0.11-0.094l0.149-0.037l0.15-0.037l0.203,0.019l0.132-0.019
	l0.149,0.037l0.109,0.037l0.132,0.094l0.093,0.093l0.109,0.131l0.094,0.149l0.092,0.186l0.152,2.271l-0.152,2.252l-0.036,0.018
	l-0.017,0.037l-0.039,0.074l-0.037,0.02l-0.018,0.037l-0.039,0.074l-0.109,0.111l-0.057,0.038l-0.036,0.056l-0.075,0.019
	l-0.057,0.038l-0.109,0.056l-0.149,0.037h-0.075h-0.037h-0.02v0.018L415.1,7.035l-0.15-0.037L414.8,6.942l-0.11-0.056l-0.111-0.094
	l-0.076-0.111l-0.073-0.131l-0.036-0.129l-0.186-2.252L414.393,1.898L414.393,1.898L414.393,1.898z"/>
<polygon fill-rule="evenodd" clip-rule="evenodd" points="431.743,0.093 431.743,8.133 433.27,8.133 433.27,2.252 435.557,8.133 
	437.715,8.133 437.715,0.093 436.189,0.093 436.189,5.694 434.014,0.093 431.743,0.093 431.743,0.093 "/>
<polygon fill-rule="evenodd" clip-rule="evenodd" fill="#DD0624" points="425.998,16.19 424.937,16.19 423.934,16.209 
	422.967,16.246 422.072,16.32 421.199,16.377 420.4,16.47 419.639,16.582 418.931,16.73 418.242,16.86 417.629,17.027 
	417.053,17.214 416.531,17.419 416.047,17.623 415.62,17.866 415.249,18.107 414.932,18.386 414.617,18.666 414.336,19.02 
	414.058,19.41 413.816,19.855 413.574,20.34 413.369,20.898 413.184,21.494 413.035,22.164 412.869,22.853 412.756,23.615 
	412.645,24.415 412.57,25.272 412.495,26.166 412.459,27.132 412.422,28.138 412.422,29.217 412.422,37.74 424.102,37.74 
	424.102,27.691 424.119,26.965 424.139,26.631 424.194,26.351 424.324,25.848 424.399,25.645 424.51,25.495 424.602,25.328 
	424.731,25.197 425.049,25.012 425.402,24.899 425.607,24.862 425.85,24.862 426.072,24.862 426.297,24.899 426.482,24.938 
	426.685,25.012 426.834,25.086 427.002,25.197 427.131,25.328 427.28,25.495 427.355,25.645 427.449,25.848 427.505,26.071 
	427.578,26.351 427.615,26.631 427.651,26.965 427.671,27.3 427.69,27.691 427.69,38.596 427.671,38.819 427.671,39.061 
	427.651,39.099 427.651,39.154 427.651,39.266 427.651,39.489 427.615,39.676 427.598,39.862 427.559,40.216 427.521,40.271 
	427.505,40.345 427.466,40.494 427.393,40.773 427.28,40.979 427.244,41.016 427.225,41.016 427.225,41.034 427.225,41.071 
	427.188,41.183 427.039,41.313 427.002,41.313 426.982,41.313 426.982,41.332 426.945,41.369 426.873,41.444 426.668,41.555 
	426.445,41.647 426.184,41.704 426.035,41.724 425.906,41.759 425.607,41.797 425.439,41.797 425.291,41.816 421.162,41.816 
	421.162,51.251 425.291,51.251 425.552,51.251 425.813,51.288 426.055,51.325 426.297,51.418 426.499,51.493 426.704,51.622 
	426.89,51.753 427.075,51.939 427.207,52.106 427.336,52.312 427.43,52.535 427.521,52.795 427.578,53.037 427.635,53.316 
	427.671,53.614 427.69,53.949 427.69,70.567 427.671,70.641 427.671,70.733 427.671,70.921 427.651,71.256 427.615,71.573 
	427.578,71.871 427.505,72.11 427.466,72.226 427.449,72.226 427.449,72.242 427.449,72.278 427.449,72.354 427.41,72.392 
	427.393,72.392 427.393,72.411 427.393,72.447 427.355,72.56 427.28,72.745 427.207,72.802 427.15,72.874 427.039,73.004 
	426.89,73.099 426.74,73.192 426.555,73.245 426.369,73.302 426.147,73.321 426.035,73.321 425.979,73.321 425.942,73.341 
	425.682,73.321 425.459,73.302 425.254,73.245 425.086,73.192 424.9,73.099 424.751,73.004 424.621,72.874 424.529,72.745 
	424.416,72.56 424.324,72.354 424.25,72.11 424.194,71.871 424.139,71.573 424.119,71.256 424.102,70.921 424.102,70.567 
	424.102,55.233 412.422,55.233 412.422,69.042 412.422,70.064 412.459,71.051 412.495,71.981 412.57,72.894 412.645,73.731 
	412.756,74.532 412.869,75.274 413.018,76.002 413.164,76.634 413.352,77.249 413.537,77.789 413.779,78.31 414.002,78.756 
	414.263,79.163 414.541,79.518 414.858,79.854 415.174,80.097 415.564,80.354 415.991,80.579 416.475,80.802 416.997,80.989 
	417.573,81.175 418.186,81.344 418.875,81.51 419.58,81.622 420.344,81.734 420.734,81.771 421.162,81.825 422.036,81.917 
	422.947,81.976 423.413,81.993 423.916,82.03 424.399,82.03 424.92,82.05 425.439,82.05 425.998,82.069 426.108,82.05 426.24,82.05 
	426.499,82.05 427.002,82.05 427.485,82.03 427.988,82.03 428.436,81.993 428.657,81.976 428.898,81.976 429.346,81.937 
	429.793,81.917 430.203,81.864 430.61,81.825 430.796,81.79 430.889,81.771 431.001,81.771 431.408,81.734 432.153,81.622 
	432.879,81.51 433.027,81.454 433.195,81.417 433.511,81.344 434.126,81.192 434.683,81.007 435.223,80.821 435.686,80.597 
	436.135,80.374 436.523,80.113 436.6,80.04 436.636,80.003 436.691,79.983 436.877,79.872 436.896,79.815 436.934,79.778 
	437.007,79.703 437.158,79.537 437.287,79.352 437.437,79.183 437.695,78.775 437.957,78.326 438.049,78.067 438.162,77.806 
	438.198,77.657 438.215,77.584 438.254,77.528 438.364,77.267 438.553,76.651 438.738,76.021 438.794,75.647 438.867,75.294 
	438.924,74.923 438.996,74.55 439.109,73.749 439.146,73.321 439.204,72.911 439.204,72.669 439.221,72.447 439.258,72.001 
	439.258,71.759 439.277,71.534 439.314,71.07 439.351,70.064 439.351,69.544 439.351,69.283 439.351,69.153 439.37,69.042 
	439.37,56.852 439.351,56.183 439.334,55.568 439.297,54.973 439.277,54.415 439.221,53.856 439.185,53.354 439.109,52.85 
	439.053,52.404 438.963,51.939 438.887,51.529 438.774,51.12 438.682,50.767 438.553,50.412 438.439,50.096 438.291,49.8 
	438.162,49.557 437.974,49.277 437.808,49.037 437.397,48.571 436.934,48.143 436.431,47.752 435.854,47.398 435.242,47.081 
	434.553,46.804 434.18,46.672 433.828,46.579 433.996,46.506 434.18,46.45 434.348,46.375 434.536,46.319 434.868,46.17 
	435.205,46.041 435.5,45.854 435.649,45.76 435.818,45.686 436.096,45.5 436.395,45.333 436.636,45.109 436.748,44.997 
	436.768,44.961 436.805,44.942 436.877,44.904 437.1,44.683 437.344,44.458 437.529,44.198 437.566,44.123 437.586,44.085 
	437.622,44.067 437.734,43.955 437.808,43.807 437.844,43.732 437.863,43.695 437.9,43.677 438.086,43.415 438.086,43.36 
	438.105,43.322 438.143,43.248 438.215,43.099 438.364,42.783 438.496,42.448 438.625,42.114 438.664,41.909 438.721,41.724 
	438.83,41.332 438.924,40.923 439.035,40.494 439.035,40.363 439.053,40.252 439.092,40.029 439.165,39.544 439.185,39.284 
	439.221,39.043 439.24,38.783 439.277,38.541 439.297,37.982 439.334,37.424 439.334,37.126 439.334,36.978 439.334,36.903 
	439.351,36.847 439.351,36.549 439.351,36.401 439.351,36.327 439.37,36.271 439.37,29.217 439.351,28.678 439.351,28.175 
	439.314,27.188 439.277,26.705 439.258,26.258 439.204,25.384 439.109,24.546 438.996,23.765 438.924,23.374 438.867,23.02 
	438.738,22.331 438.553,21.681 438.364,21.085 438.254,20.787 438.162,20.526 437.957,20.024 437.715,19.559 437.453,19.168 
	437.176,18.814 437.026,18.646 436.896,18.517 436.543,18.219 436.17,17.959 435.725,17.699 435.259,17.474 434.719,17.251 
	434.162,17.065 433.547,16.898 432.918,16.768 432.189,16.618 431.447,16.507 430.646,16.395 429.829,16.32 428.918,16.246 
	427.988,16.209 427.002,16.19 425.998,16.19 425.998,16.19 "/>
<polygon fill-rule="evenodd" clip-rule="evenodd" points="396.389,0.093 394.658,0.093 394.658,8.133 396.389,8.133 396.389,0.093 
	396.389,0.093 "/>
<path fill-rule="evenodd" clip-rule="evenodd" d="M396.035,16.73l-0.242,0.242l-0.205,0.278l-0.166,0.279l-0.131,0.298l-0.13,0.298
	l-0.056,0.334l-0.057,0.335v0.373v0.334l0.057,0.334l0.056,0.317l0.13,0.334l0.131,0.278l0.166,0.299l0.205,0.26l0.242,0.28
	l0.242,0.223l0.261,0.204l0.278,0.169l0.314,0.147l0.301,0.094l0.334,0.093l0.352,0.055l0.374,0.02l0.335-0.02l0.334-0.055
	l0.148-0.056l0.166-0.037l0.335-0.094l0.28-0.147l0.299-0.169l0.258-0.204l0.281-0.223l0.093-0.149l0.11-0.13l0.205-0.26
	l0.168-0.299l0.148-0.278l0.094-0.334l0.075-0.317l0.054-0.334l0.02-0.334l-0.02-0.373l-0.054-0.335l-0.075-0.334l-0.094-0.298
	l-0.148-0.298l-0.168-0.279l-0.205-0.278l-0.203-0.242l-0.281-0.243l-0.258-0.204l-0.299-0.187l-0.28-0.13l-0.335-0.13l-0.314-0.056
	l-0.334-0.057l-0.335,0.019l-0.374-0.019l-0.352,0.057l-0.334,0.056l-0.301,0.13l-0.314,0.13l-0.278,0.187l-0.261,0.204
	L396.035,16.73L396.035,16.73L396.035,16.73z M395.664,19.168l0.037-0.578l0.056-0.279l0.112-0.242l0.242-0.465l0.166-0.223
	l0.205-0.186l0.427-0.373l0.222-0.148l0.262-0.093l0.242-0.112l0.277-0.055l0.579-0.038l1.97,0.819l0.186,0.186l0.169,0.223
	l0.259,0.465l0.076,0.242l0.072,0.279l0.039,0.28l0.018,0.298h-0.018v0.018v0.037v0.074v0.149l-0.039,0.28l-0.072,0.241
	l-0.076,0.262l-0.129,0.223l-0.13,0.222l-0.056,0.038l-0.037,0.055l-0.076,0.112l-0.186,0.205l-0.222,0.204l-0.222,0.187
	l-0.244,0.149l-0.223,0.13l-0.262,0.093l-0.258,0.075l-0.281,0.037l-0.259,0.02l-0.298-0.02l-0.281-0.037l-0.277-0.075l-0.242-0.093
	l-0.262-0.13l-0.222-0.149l-0.222-0.187l-0.205-0.204l-0.205-0.205l-0.166-0.205l-0.149-0.222l-0.093-0.223l-0.112-0.262
	l-0.056-0.241l-0.037-0.28V19.168L395.664,19.168L395.664,19.168z"/>
<path fill-rule="evenodd" clip-rule="evenodd" d="M398.008,19.447h0.298l0.521,0.28l0.186,1.358h0.912l-0.095-1.099l-0.817-0.818
	l0.072-0.038l0.039-0.019h0.055l0.075-0.037l0.036-0.02h0.057l0.02-0.037l0.037-0.02l0.072-0.037l0.02-0.038l0.037-0.019
	l0.076-0.037l0.072-0.149l0.076-0.15l0.037-0.186l0.036-0.186l-0.278-0.726l-0.725-0.278h-1.712v3.889h0.894V19.447L398.008,19.447
	L398.008,19.447z M398.008,17.828h0.483l0.427,0.521l-0.02,0.111l-0.017,0.111l-0.039,0.094l-0.036,0.093l-0.074,0.056l-0.075,0.056
	h-0.056l-0.037,0.018l-0.073,0.037h-0.483V17.828L398.008,17.828L398.008,17.828z"/>
<path fill-rule="evenodd" clip-rule="evenodd" d="M22.336,0.093H20.18l-2.27,8.041h1.637l0.428-1.807h2.362l0.428,1.807h1.73
	L22.336,0.093L22.336,0.093L22.336,0.093z M21.072,1.62h0.075l0.801,3.553h-1.581L21.072,1.62L21.072,1.62L21.072,1.62z"/>
<polygon fill-rule="evenodd" clip-rule="evenodd" points="5.431,1.433 5.431,0.093 0,0.093 0,1.433 1.785,1.433 1.785,8.133 
	3.516,8.133 3.516,1.433 5.431,1.433 5.431,1.433 "/>
<polygon fill-rule="evenodd" clip-rule="evenodd" points="19.175,49.297 18.635,49.297 15.828,16.284 0.447,16.284 0.447,81.79 
	10.396,81.79 9.932,41.686 10.489,41.629 15.92,81.79 22.151,81.79 27.488,41.629 28.028,41.686 27.582,81.79 37.606,81.79 
	37.606,16.284 21.947,16.284 19.175,49.297 19.175,49.297 "/>
<polygon fill-rule="evenodd" clip-rule="evenodd" points="75.678,0.093 74.059,0.093 74.059,8.133 75.678,8.133 75.678,0.093 
	75.678,0.093 "/>
<polygon fill-rule="evenodd" clip-rule="evenodd" points="60.929,1.433 60.929,0.093 55.517,0.093 55.517,1.433 57.339,1.433 
	57.339,8.133 59.05,8.133 59.05,1.433 60.929,1.433 60.929,1.433 "/>
<polygon fill-rule="evenodd" clip-rule="evenodd" points="40.339,1.191 40.488,1.191 40.637,1.246 40.748,1.358 40.86,1.525 
	41.047,2.623 42.683,2.623 42.665,2.289 42.646,1.992 42.59,1.693 42.534,1.452 42.441,1.209 42.349,1.006 42.237,0.801 
	42.107,0.651 41.939,0.483 41.772,0.354 41.567,0.223 41.363,0.148 41.121,0.074 40.879,0.038 40.619,0 40.339,0 39.875,0.018 
	39.485,0.074 39.131,0.167 38.814,0.316 38.499,0.483 38.257,0.708 38.052,0.968 37.886,1.284 37.514,4.168 37.886,7.053 
	38.052,7.333 38.257,7.574 38.499,7.779 38.814,7.984 39.131,8.114 39.485,8.226 39.875,8.282 40.339,8.337 40.339,8.319 
	40.359,8.319 40.396,8.319 40.47,8.319 40.619,8.319 40.898,8.282 41.158,8.226 41.271,8.188 41.271,8.17 41.289,8.17 41.327,8.17 
	41.4,8.17 41.438,8.133 41.438,8.114 41.455,8.114 41.493,8.114 41.605,8.076 41.791,7.965 41.865,7.891 41.903,7.853 41.903,7.834 
	41.921,7.834 41.958,7.834 42.032,7.76 42.07,7.723 42.07,7.705 42.089,7.705 42.125,7.705 42.182,7.593 42.256,7.5 42.311,7.388 
	42.385,7.295 42.423,7.165 42.478,7.053 42.59,6.792 42.59,6.7 42.608,6.625 42.646,6.476 42.646,6.383 42.665,6.309 42.701,6.159 
	42.739,5.807 42.776,5.416 41.14,5.416 40.953,6.514 40.898,6.625 40.86,6.737 40.805,6.812 40.768,6.849 40.748,6.849 
	40.748,6.867 40.748,6.904 40.712,6.904 40.693,6.904 40.693,6.924 40.657,6.96 40.619,6.96 40.601,6.96 40.601,6.979 40.563,7.017 
	40.452,7.035 40.339,7.053 40.172,7.035 40.024,6.998 39.875,6.942 39.763,6.886 39.652,6.792 39.56,6.681 39.429,6.421 
	39.243,4.168 39.429,1.898 40.339,1.191 40.339,1.191 "/>
<polygon fill-rule="evenodd" clip-rule="evenodd" points="68.35,25.049 68.07,27.319 68.07,81.79 79.229,81.79 79.229,27.319 
	78.932,25.049 81.201,25.347 85.348,25.347 85.348,16.284 61.933,16.284 61.933,25.347 66.099,25.347 68.35,25.049 68.35,25.049 "/>
<polygon fill-rule="evenodd" clip-rule="evenodd" points="55.237,25.252 60.408,25.252 60.408,16.284 42.125,16.284 42.125,81.79 
	60.408,81.79 60.408,73.023 55.237,73.023 53.08,73.265 53.266,71.015 53.266,52.461 53.08,50.208 55.237,50.488 60.408,50.488 
	60.408,41.778 53.08,41.964 53.266,39.806 53.266,27.225 53.08,24.956 55.237,25.252 55.237,25.252 "/>
<path fill-rule="evenodd" clip-rule="evenodd" d="M111.758,0.093h-2.27l-2.157,8.041h1.637l0.427-1.807h2.362l0.372,1.807h1.786
	L111.758,0.093L111.758,0.093L111.758,0.093z M110.494,1.62h0.093l0.818,3.553h-1.619L110.494,1.62L110.494,1.62L110.494,1.62z"/>
<polygon fill-rule="evenodd" clip-rule="evenodd" points="123.681,16.284 112.744,16.284 112.744,81.79 130.654,81.79 
	130.654,73.023 125.688,73.023 123.531,73.265 123.681,71.015 123.681,16.284 123.681,16.284 "/>
<polygon fill-rule="evenodd" clip-rule="evenodd" points="127.027,0.093 127.027,8.133 131.285,8.133 131.285,6.792 128.757,6.792 
	128.757,0.093 127.027,0.093 127.027,0.093 "/>
<polygon fill-rule="evenodd" clip-rule="evenodd" points="91.059,4.168 91.244,1.898 91.375,1.563 91.58,1.34 91.82,1.209 
	91.951,1.173 92.118,1.191 92.192,1.173 92.285,1.191 92.434,1.246 92.49,1.284 92.564,1.358 92.676,1.525 92.862,2.623 
	94.498,2.623 94.48,2.289 94.462,1.992 94.405,1.693 94.351,1.452 94.257,1.209 94.164,1.006 94.053,0.801 93.922,0.651 
	93.755,0.483 93.569,0.354 93.364,0.223 93.16,0.148 92.917,0.074 92.676,0.038 92.396,0 92.118,0 91.653,0.018 91.244,0.074 
	90.873,0.167 90.556,0.316 90.277,0.483 90.035,0.708 89.83,0.968 89.7,1.284 89.329,4.168 89.329,4.635 89.347,5.099 89.365,5.527 
	89.421,5.918 89.459,6.234 89.532,6.55 89.607,6.812 89.7,7.053 89.83,7.333 90.035,7.574 90.277,7.779 90.556,7.984 90.873,8.114 
	91.04,8.17 91.244,8.226 91.431,8.244 91.653,8.282 92.118,8.337 92.416,8.319 92.694,8.282 92.955,8.226 93.067,8.188 93.067,8.17 
	93.085,8.17 93.123,8.17 93.197,8.17 93.233,8.133 93.233,8.114 93.253,8.114 93.29,8.114 93.402,8.076 93.606,7.965 93.681,7.891 
	93.718,7.853 93.718,7.834 93.736,7.834 93.773,7.834 93.848,7.76 93.884,7.723 93.884,7.705 93.904,7.705 93.94,7.705 
	93.997,7.593 94.071,7.5 94.126,7.388 94.2,7.295 94.238,7.165 94.294,7.053 94.387,6.792 94.387,6.7 94.405,6.625 94.442,6.476 
	94.442,6.383 94.462,6.309 94.498,6.159 94.536,5.807 94.536,5.602 94.555,5.416 92.937,5.416 92.769,6.514 92.714,6.625 
	92.676,6.737 92.602,6.812 92.564,6.849 92.546,6.849 92.546,6.867 92.546,6.904 92.434,6.96 92.396,6.96 92.378,6.96 92.378,6.979 
	92.341,7.017 92.229,7.035 92.118,7.053 91.244,6.421 91.059,4.168 91.059,4.168 "/>
<path fill-rule="evenodd" clip-rule="evenodd" d="M103.352,16.284H88.231L82.913,81.79h9.856l0.819-13.754h5.039l0.912,13.754
	h11.048L103.352,16.284L103.352,16.284L103.352,16.284z M95.372,28.509h0.67l1.878,28.845l0.373,2.158l-2.158-0.242h-0.391
	l-1.804,0.242l0.279-1.786L95.372,28.509L95.372,28.509L95.372,28.509z"/>
<polygon fill-rule="evenodd" clip-rule="evenodd" points="163.48,1.34 163.48,0.093 159.128,0.093 159.128,8.133 163.573,8.133 
	163.573,6.886 160.746,6.886 160.746,4.597 163.293,4.597 163.293,3.351 160.746,3.351 160.746,1.34 163.48,1.34 163.48,1.34 "/>
<polygon fill-rule="evenodd" clip-rule="evenodd" points="169.711,18.35 169.358,18.052 168.985,17.79 168.559,17.549 
	168.111,17.344 167.59,17.14 167.051,16.954 166.438,16.786 165.806,16.656 165.099,16.507 164.374,16.395 163.573,16.302 
	162.773,16.228 161.899,16.152 161.007,16.115 160.039,16.097 159.054,16.097 158.069,16.097 157.119,16.115 156.227,16.152 
	155.391,16.228 154.571,16.302 153.81,16.395 153.083,16.507 152.433,16.656 151.782,16.786 151.187,16.954 150.647,17.14 
	150.146,17.344 149.68,17.549 149.253,17.79 148.881,18.052 148.564,18.35 148.248,18.628 147.969,18.983 147.709,19.354 
	147.485,19.781 147.245,20.229 147.058,20.731 146.873,21.271 146.724,21.866 146.575,22.48 146.462,23.15 146.352,23.839 
	146.277,24.602 146.202,25.365 146.165,26.202 146.128,27.058 146.128,27.97 146.128,71.478 146.108,72.169 146.128,72.838 
	146.165,73.47 146.24,74.103 146.406,75.257 146.519,75.797 146.667,76.317 146.798,76.8 146.965,77.267 147.151,77.694 
	147.374,78.124 147.579,78.515 147.82,78.886 148.081,79.222 148.378,79.537 148.657,79.815 148.993,80.097 149.346,80.338 
	149.736,80.579 150.127,80.784 150.554,80.989 151.001,81.155 151.503,81.344 151.986,81.474 152.525,81.603 153.065,81.695 
	153.661,81.79 154.255,81.845 154.888,81.9 155.538,81.937 156.245,81.976 162.03,80.97 162.253,80.821 162.364,80.745 
	162.421,80.709 162.495,80.692 162.979,80.392 163.424,80.04 163.871,79.649 164.28,79.183 164.69,78.683 164.875,78.401 
	164.968,78.253 165.079,78.124 165.266,77.825 165.47,77.528 166.01,76.71 166.196,76.71 168.261,81.79 172.147,81.79 
	172.147,47.956 158.682,47.956 158.682,56.813 160.039,56.813 161.471,56.535 161.322,58.788 161.322,69.674 161.304,69.71 
	161.304,69.767 161.304,69.879 161.304,70.104 161.285,70.511 161.229,70.885 161.192,71.239 161.137,71.386 161.1,71.554 
	161.025,71.852 160.913,72.11 160.858,72.226 160.82,72.354 160.671,72.56 160.523,72.745 160.356,72.894 160.318,72.894 
	160.3,72.911 160.264,72.95 160.189,73.023 160.077,73.06 160.039,73.06 160.021,73.079 159.984,73.116 159.78,73.192 
	159.705,73.192 159.668,73.192 159.649,73.209 159.537,73.245 159.314,73.265 159.036,73.245 158.794,73.209 158.57,73.136 
	158.365,73.043 158.162,72.911 157.993,72.765 157.826,72.597 157.696,72.411 157.548,72.169 157.436,71.907 157.343,71.627 
	157.286,71.331 157.212,70.997 157.175,70.641 157.157,69.859 157.157,28.324 157.175,27.486 157.212,27.096 157.286,26.761 
	157.343,26.426 157.436,26.147 157.548,25.868 157.696,25.645 157.826,25.421 157.993,25.252 158.162,25.086 158.365,24.974 
	158.794,24.807 159.036,24.769 159.314,24.769 159.537,24.769 159.78,24.807 159.984,24.862 160.189,24.974 160.356,25.086 
	160.523,25.252 160.671,25.421 160.82,25.645 160.913,25.868 161.025,26.147 161.1,26.426 161.192,26.761 161.229,27.096 
	161.285,27.486 161.304,27.877 161.322,28.324 161.322,38.894 172.147,38.894 172.147,28.119 172.129,27.17 172.091,26.276 
	172.035,25.439 171.98,24.639 171.887,23.875 171.794,23.15 171.719,22.796 171.664,22.48 171.533,21.866 171.348,21.252 
	171.162,20.713 170.957,20.21 170.845,19.968 170.752,19.763 170.51,19.336 170.381,19.131 170.27,18.963 170.12,18.776 
	169.99,18.628 169.711,18.35 169.711,18.35 "/>
<polygon fill-rule="evenodd" clip-rule="evenodd" points="295.103,97.718 298.914,97.718 298.914,94.183 287.197,94.183 
	287.197,97.718 290.955,97.718 290.955,112.979 295.103,112.979 295.103,97.718 295.103,97.718 "/>
<polygon fill-rule="evenodd" clip-rule="evenodd" points="316.082,109.63 316.082,104.993 321.736,104.993 321.736,101.757 
	316.082,101.757 316.082,97.403 323.335,97.403 323.335,94.183 311.934,94.183 311.934,112.979 323.335,112.979 323.335,109.63 
	316.082,109.63 316.082,109.63 "/>
<path fill-rule="evenodd" clip-rule="evenodd" d="M272.469,112.979h4.221l-5.393-18.797h-4.129l-5.674,18.797h3.83l0.914-3.889h5.28
	L272.469,112.979L272.469,112.979L272.469,112.979z M268.859,98.185l1.878,7.686h-3.718L268.859,98.185L268.859,98.185
	L268.859,98.185z"/>
<path fill-rule="evenodd" clip-rule="evenodd" d="M349.316,99.784l-0.037-0.726l-0.092-0.688l-0.169-0.652l-0.222-0.612
	l-0.318-0.579l-0.334-0.5l-0.205-0.242l-0.186-0.205l-0.428-0.354l-0.482-0.337l-0.447-0.259l-0.447-0.188l-0.446-0.11l-0.521-0.075
	l-0.297-0.037h-0.318l-0.352-0.037h-0.373h-0.391h-0.408h-5.896v18.797h4.147v-7.427h2.027l2.51,7.427h4.502l-3.44-8.208
	l0.298-0.205l0.298-0.205l0.056-0.073l0.074-0.057l0.148-0.111l0.259-0.223l0.225-0.262l0.225-0.261l0.183-0.296l0.186-0.28
	l0.152-0.335l0.129-0.334l0.112-0.373l0.11-0.354v-0.11v-0.056l0.02-0.036l0.036-0.188v-0.11v-0.056l0.02-0.036l0.036-0.188
	l0.037-0.427L349.316,99.784L349.316,99.784L349.316,99.784z M344.946,98.258l0.149,0.317l0.129,0.354l0.057,0.391l0.036,0.465
	l-0.02,0.148v0.168l-0.036,0.299l-0.037,0.129l-0.02,0.148l-0.037,0.133l-0.02,0.148l-0.053,0.109l-0.039,0.133l-0.094,0.222
	l-0.072,0.093l-0.057,0.112l-0.073,0.093l-0.056,0.112l-0.169,0.149l-0.186,0.129l-0.205,0.112l-0.202,0.112l-0.244,0.073h-0.074
	h-0.039l-0.017,0.02l-0.11,0.036l-0.28,0.037h-0.149h-0.075h-0.036l-0.018,0.02h-1.805v-5.305h1.619h0.428l0.391,0.056l0.314,0.056
	l0.281,0.113l0.202,0.129l0.225,0.186l0.186,0.225L344.946,98.258L344.946,98.258L344.946,98.258z"/>
<polygon fill-rule="evenodd" clip-rule="evenodd" points="208.358,97.403 208.358,94.183 196.977,94.183 196.977,112.979 
	208.358,112.979 208.358,109.63 201.104,109.63 201.104,104.993 206.777,104.993 206.777,101.757 201.104,101.757 201.104,97.403 
	208.358,97.403 208.358,97.403 "/>
<polygon fill-rule="evenodd" clip-rule="evenodd" points="174.64,94.183 170.51,94.183 170.51,112.979 174.64,112.979 
	174.64,106.595 176.183,104.325 179.493,112.979 183.754,112.979 178.656,101.104 183.381,94.183 179.177,94.183 174.64,102.018 
	174.64,94.183 174.64,94.183 "/>
<polygon fill-rule="evenodd" clip-rule="evenodd" points="248.623,104.993 248.623,101.757 242.971,101.757 242.971,97.403 
	250.225,97.403 250.225,94.183 238.823,94.183 238.823,112.979 250.225,112.979 250.225,109.63 242.971,109.63 242.971,104.993 
	248.623,104.993 248.623,104.993 "/>
<polygon fill-rule="evenodd" clip-rule="evenodd" points="95.968,93.902 95.279,93.922 94.666,93.995 94.071,94.107 93.531,94.296 
	92.993,94.518 92.509,94.796 92.043,95.133 91.653,95.523 91.264,95.914 90.929,96.36 90.649,96.827 90.426,97.347 90.239,97.867 
	90.108,98.443 90.035,99.022 90.016,99.674 90.016,100.025 90.054,100.38 90.09,100.714 90.185,101.067 90.259,101.386 
	90.388,101.72 90.519,102.018 90.704,102.335 91.059,102.874 91.244,103.114 91.467,103.358 91.933,103.766 92.434,104.12 
	93.01,104.417 93.364,104.566 93.755,104.752 94.629,105.106 95.652,105.499 95.837,105.553 96.042,105.628 96.396,105.777 
	96.711,105.927 97.029,106.075 97.14,106.132 97.271,106.204 97.475,106.354 97.642,106.503 97.81,106.651 97.996,106.913 
	98.145,107.21 98.237,107.525 98.274,107.88 98.256,107.916 98.256,107.972 98.256,108.085 98.219,108.29 98.163,108.476 
	98.125,108.567 98.106,108.681 97.996,108.847 97.883,109.034 97.754,109.183 97.68,109.257 97.642,109.293 97.623,109.293 
	97.623,109.313 97.623,109.349 97.418,109.462 97.232,109.573 97.122,109.61 97.084,109.61 97.065,109.61 97.065,109.63 
	97.029,109.667 96.917,109.703 96.879,109.703 96.86,109.703 96.86,109.723 96.824,109.759 96.749,109.759 96.711,109.759 
	96.693,109.759 96.693,109.776 96.582,109.815 96.358,109.872 96.228,109.872 96.117,109.892 95.986,109.892 95.875,109.908 
	95.577,109.892 95.299,109.853 95.038,109.796 94.796,109.723 94.555,109.61 94.331,109.481 93.94,109.183 93.588,108.772 
	93.42,108.531 93.29,108.29 93.16,108.011 93.048,107.711 92.937,107.396 92.862,107.062 89.272,108.085 89.439,108.7 
	89.663,109.276 89.905,109.815 90.185,110.338 90.463,110.782 90.816,111.212 91.169,111.603 91.58,111.954 91.987,112.235 
	92.454,112.513 92.917,112.718 93.438,112.923 93.96,113.053 94.536,113.165 95.132,113.222 95.782,113.258 95.857,113.238 
	95.95,113.238 96.135,113.238 96.506,113.222 96.842,113.183 97.196,113.146 97.511,113.072 97.847,112.997 97.996,112.94 
	98.163,112.903 98.497,112.831 98.627,112.755 98.775,112.698 99.073,112.587 99.353,112.438 99.482,112.364 99.633,112.308 
	99.744,112.216 99.874,112.142 100.134,111.974 100.376,111.788 100.636,111.603 101.045,111.155 101.231,110.911 101.417,110.689 
	101.566,110.431 101.715,110.187 101.975,109.667 102.162,109.107 102.236,108.81 102.31,108.531 102.348,108.214 102.384,107.916 
	102.422,107.284 102.403,106.894 102.366,106.539 102.255,105.851 102.162,105.517 102.05,105.218 101.79,104.642 101.603,104.345 
	101.436,104.083 101.231,103.821 101.045,103.6 100.6,103.173 100.357,102.987 100.134,102.838 99.836,102.649 99.539,102.481 
	98.868,102.147 98.497,101.962 98.106,101.813 97.252,101.478 96.768,101.292 96.34,101.104 95.95,100.938 95.615,100.79 
	95.299,100.641 95.038,100.511 94.814,100.38 94.647,100.267 94.48,100.12 94.351,99.989 94.238,99.84 94.164,99.69 94.089,99.505 
	94.053,99.337 94.015,99.151 94.015,98.983 94.033,98.632 94.146,98.333 94.294,98.036 94.555,97.792 94.666,97.643 94.814,97.532 
	94.965,97.44 95.149,97.384 95.317,97.308 95.522,97.271 95.968,97.255 96.433,97.271 96.637,97.308 96.86,97.384 97.047,97.46 
	97.252,97.569 97.418,97.682 97.605,97.831 97.754,97.96 97.921,98.128 98.052,98.313 98.199,98.538 98.312,98.761 98.441,99.022 
	98.665,99.579 102.069,98.277 101.882,97.737 101.679,97.235 101.455,96.769 101.212,96.341 100.934,95.934 100.618,95.579 
	100.283,95.263 99.929,94.983 99.521,94.703 99.093,94.498 98.627,94.296 98.163,94.166 97.642,94.034 97.104,93.958 96.544,93.902 
	95.968,93.902 95.968,93.902 "/>
<path fill-rule="evenodd" clip-rule="evenodd" d="M151.986,94.183h-4.147l-5.654,18.797h3.812l0.912-3.889h5.282l0.948,3.889h4.223
	L151.986,94.183L151.986,94.183L151.986,94.183z M151.411,105.87h-3.721l1.841-7.686L151.411,105.87L151.411,105.87L151.411,105.87z
	"/>
<polygon fill-rule="evenodd" clip-rule="evenodd" points="120.982,94.183 116.407,94.183 116.407,112.979 119.607,112.979 
	119.607,99.374 125.336,112.979 128.999,112.979 128.999,94.183 125.801,94.183 125.801,105.87 120.982,94.183 120.982,94.183 "/>
<path fill-rule="evenodd" clip-rule="evenodd" d="M358.914,95.335l-0.205-0.186l-0.188-0.148l-0.407-0.223l-0.447-0.131
	l-0.242-0.037h-0.222l-0.503,0.037l-0.242,0.039l-0.202,0.092l-0.225,0.094l-0.186,0.129l-0.354,0.334l-0.334,0.354l-0.225,0.43
	l-0.129,0.444l-0.018,0.503l-0.02,0.225l0.037,0.241l0.129,0.447l0.225,0.41l0.148,0.186l0.186,0.205l0.354,0.298l0.186,0.13
	l0.225,0.111l0.202,0.074l0.242,0.056l0.242,0.036l0.261,0.02l0.222-0.02l0.242-0.036l0.225-0.056l0.223-0.074l0.186-0.111
	l0.222-0.13l0.188-0.149l0.205-0.148l0.148-0.205l0.148-0.186l0.13-0.225l0.112-0.186l0.073-0.225l0.056-0.223l0.037-0.241
	l0.02-0.225l-0.02-0.259l-0.037-0.244l-0.056-0.223l-0.073-0.222l-0.112-0.225l-0.13-0.205L358.914,95.335L358.914,95.335
	L358.914,95.335z M357.202,95.077l0.371,0.036l0.169,0.036l0.186,0.076l0.148,0.073l0.168,0.132l0.296,0.298l0.261,0.278
	l0.225,0.314l0.11,0.357l0.075,0.388l-0.671,1.452l-1.338,0.521l-0.391-0.036l-0.354-0.094l-0.314-0.168l-0.281-0.223l-0.295-0.334
	l-0.132-0.186l-0.073-0.168l-0.129-0.371l-0.039-0.205v-0.188l0.039-0.388l0.129-0.357l0.205-0.314l0.295-0.278l0.281-0.298
	l0.314-0.205l0.354-0.112L357.202,95.077L357.202,95.077L357.202,95.077z"/>
<path fill-rule="evenodd" clip-rule="evenodd" d="M358.188,96.36l-0.169-0.559l-0.557-0.166h-1.154v2.883h0.633v-1.172h0.056
	l0.466,0.186l0.094,0.354l0.109,0.632h0.522v-0.893l-0.522-0.56L358.188,96.36L358.188,96.36L358.188,96.36z M357.202,96.08
	l0.354,0.374l-0.354,0.463h-0.261V96.08H357.202L357.202,96.08L357.202,96.08z"/>
</svg>
