<?xml version="1.0" encoding="utf-8"?>
<!-- Generator: Adobe Illustrator 17.0.0, SVG Export Plug-In . SVG Version: 6.00 Build 0)  -->
<!DOCTYPE svg PUBLIC "-//W3C//DTD SVG 1.1//EN" "http://www.w3.org/Graphics/SVG/1.1/DTD/svg11.dtd">
<svg version="1.1" id="Layer_1" xmlns="http://www.w3.org/2000/svg" xmlns:xlink="http://www.w3.org/1999/xlink" x="0px" y="0px"
	 width="400px" height="113.514px" viewBox="0 0 400 113.514" enable-background="new 0 0 400 113.514" xml:space="preserve">
<g>
	<g>
		<g>
			<path fill="#FFFFFF" d="M125.484,102.683c-0.192-0.546-0.377-1.099-0.556-1.649c-0.178-0.547-0.363-1.096-0.556-1.643h-6.075
				l-1.112,3.292h-1.524c0.824-2.388,1.644-4.754,2.462-7.095c0.816-2.339,1.636-4.704,2.461-7.092h1.523l4.943,14.187H125.484z
				 M121.304,90.369c-0.124,0.4-0.299,0.947-0.526,1.649c-0.226,0.698-0.467,1.427-0.721,2.19c-0.254,0.763-0.498,1.497-0.731,2.195
				c-0.234,0.699-0.419,1.257-0.557,1.666h5.149c-0.123-0.409-0.303-0.968-0.535-1.666c-0.233-0.699-0.481-1.433-0.741-2.195
				c-0.262-0.763-0.509-1.491-0.741-2.19c-0.234-0.702-0.412-1.249-0.535-1.649H121.304z"/>
			<path fill="#FFFFFF" d="M133.287,92.409c1.003,0,1.782,0.299,2.338,0.904c0.556,0.605,0.834,1.491,0.834,2.657v6.712h-1.339
				v-6.487c0-0.903-0.189-1.546-0.569-1.924c-0.379-0.38-0.892-0.561-1.54-0.546c-0.454,0-0.982,0.126-1.581,0.38
				c-0.599,0.257-1.202,0.579-1.808,0.977v7.601h-1.338V92.509h1.156l0.182,1.281c0.919-0.567,1.658-0.935,2.214-1.114
				C132.393,92.497,132.876,92.409,133.287,92.409z"/>
			<path fill="#FFFFFF" d="M144.964,101.569c-0.893,0.523-1.62,0.856-2.183,1c-0.563,0.146-1.044,0.216-1.441,0.216
				c-0.961,0-1.737-0.257-2.326-0.772c-0.591-0.514-0.886-1.245-0.886-2.193c0-0.549,0.12-1.011,0.361-1.391
				c0.24-0.375,0.539-0.682,0.895-0.915c0.357-0.233,0.741-0.4,1.153-0.506c0.411-0.102,0.796-0.152,1.153-0.152h3.315v-0.9
				c0-0.793-0.216-1.371-0.649-1.74c-0.433-0.369-1.074-0.556-1.925-0.556c-0.425,0-0.893,0.062-1.4,0.178
				c-0.507,0.117-1.023,0.372-1.544,0.772l-0.68-1.032c0.618-0.459,1.24-0.768,1.864-0.932c0.624-0.158,1.245-0.237,1.864-0.237
				c1.359,0,2.333,0.299,2.924,0.904c0.591,0.605,0.886,1.468,0.886,2.596v6.774h-1.153l-0.185-1.093L144.964,101.569z
				 M145.005,97.988h-3.006c-0.247,0-0.515,0.017-0.804,0.053c-0.288,0.032-0.555,0.114-0.802,0.245
				c-0.247,0.129-0.453,0.316-0.617,0.556c-0.165,0.239-0.248,0.567-0.248,0.979c0,0.603,0.199,1.047,0.597,1.327
				c0.399,0.284,0.886,0.421,1.462,0.421c0.274,0,0.563-0.041,0.865-0.123c0.303-0.082,0.605-0.184,0.906-0.307
				c0.302-0.123,0.595-0.26,0.876-0.415c0.281-0.149,0.538-0.293,0.772-0.43V97.988z"/>
			<path fill="#FFFFFF" d="M150.44,100.133c0,0.588,0.121,0.965,0.361,1.129c0.24,0.166,0.642,0.234,1.205,0.205l0.041,1.257
				c-0.151,0.026-0.295,0.044-0.432,0.05c-0.138,0.008-0.276,0.011-0.412,0.011c-0.824,0-1.38-0.208-1.668-0.628
				c-0.289-0.418-0.433-1.026-0.433-1.821V87.937h1.338V100.133z"/>
			<path fill="#FFFFFF" d="M155.093,106.802l1.504-4.245l-0.721-0.658l-2.945-9.367h1.441c0.069,0.193,0.168,0.506,0.299,0.935
				c0.131,0.433,0.265,0.886,0.401,1.357c0.137,0.476,0.271,0.927,0.402,1.362c0.13,0.433,0.229,0.746,0.298,0.939l1.339,4.321
				h0.041l1.544-4.321c0.069-0.193,0.182-0.506,0.339-0.939c0.158-0.435,0.32-0.886,0.485-1.362
				c0.165-0.471,0.322-0.924,0.474-1.357c0.151-0.43,0.261-0.743,0.329-0.935h1.443c-0.152,0.397-0.361,0.971-0.629,1.716
				c-0.268,0.749-0.574,1.588-0.916,2.514c-0.343,0.927-0.7,1.894-1.071,2.903c-0.371,1.012-0.724,1.979-1.06,2.903
				c-0.337,0.926-0.643,1.763-0.917,2.511c-0.275,0.752-0.481,1.325-0.618,1.722H155.093z"/>
			<path fill="#FFFFFF" d="M168.911,102.501c-0.358,0.108-0.721,0.181-1.092,0.223c-0.371,0.044-0.652,0.061-0.844,0.061
				c-1.044,0-1.785-0.236-2.224-0.707c-0.439-0.474-0.659-1.266-0.659-2.374v-5.938h-1.503v-1.257h1.524l0.351-2.388h0.968v2.388
				h2.923v1.257h-2.923v5.561c0,0.85,0.14,1.433,0.422,1.739c0.281,0.309,0.717,0.461,1.308,0.461c0.205,0,0.442-0.011,0.71-0.041
				c0.267-0.026,0.546-0.067,0.834-0.123L168.911,102.501z"/>
			<path fill="#FFFFFF" d="M172.123,89.317c0,0.233-0.086,0.435-0.257,0.61c-0.172,0.17-0.374,0.257-0.607,0.257
				c-0.234,0-0.436-0.087-0.609-0.257c-0.171-0.175-0.256-0.377-0.256-0.61c0-0.246,0.085-0.454,0.256-0.617
				c0.172-0.164,0.375-0.246,0.609-0.246c0.233,0,0.436,0.082,0.607,0.246C172.037,88.863,172.123,89.071,172.123,89.317z
				 M170.579,102.683V92.509h1.338v10.174H170.579z"/>
			<path fill="#FFFFFF" d="M178.301,92.386c0.563,0,1.136,0.076,1.72,0.222c0.582,0.15,1.094,0.448,1.534,0.892l-0.824,1.029
				c-0.426-0.371-0.841-0.611-1.246-0.722c-0.406-0.108-0.772-0.164-1.101-0.164c-0.316,0-0.636,0.047-0.958,0.146
				c-0.322,0.094-0.614,0.248-0.875,0.462c-0.26,0.214-0.47,0.497-0.628,0.848c-0.159,0.351-0.237,0.775-0.237,1.272v2.435
				c0,0.494,0.078,0.912,0.237,1.257c0.158,0.345,0.363,0.622,0.618,0.839c0.254,0.211,0.541,0.369,0.865,0.473
				c0.322,0.102,0.649,0.152,0.979,0.152c0.316,0,0.7-0.061,1.153-0.184c0.454-0.126,0.837-0.327,1.153-0.62l0.844,0.971
				c-0.453,0.397-0.957,0.678-1.513,0.845c-0.556,0.163-1.116,0.245-1.679,0.245c-0.604,0-1.153-0.09-1.648-0.266
				c-0.494-0.181-0.913-0.43-1.26-0.752c-0.346-0.324-0.615-0.707-0.803-1.155c-0.189-0.447-0.284-0.935-0.284-1.473v-3.026
				c0-0.561,0.102-1.076,0.304-1.535c0.203-0.459,0.485-0.85,0.845-1.172c0.36-0.321,0.78-0.576,1.261-0.751
				C177.237,92.477,177.751,92.386,178.301,92.386z"/>
			<path fill="#FFFFFF" d="M186.764,101.674c0.289,0,0.577-0.029,0.865-0.094c0.289-0.058,0.549-0.163,0.782-0.309
				c0.234-0.144,0.422-0.331,0.567-0.564c0.144-0.234,0.216-0.521,0.216-0.868c0-0.436-0.144-0.772-0.432-1.006
				c-0.289-0.234-0.694-0.412-1.215-0.535c-0.481-0.123-0.992-0.231-1.534-0.322c-0.542-0.087-1.04-0.225-1.492-0.409
				c-0.454-0.184-0.828-0.444-1.123-0.783c-0.296-0.336-0.442-0.807-0.442-1.409c0-0.441,0.088-0.842,0.267-1.207
				c0.179-0.363,0.425-0.676,0.742-0.936c0.315-0.26,0.696-0.462,1.142-0.608c0.447-0.143,0.93-0.214,1.452-0.214
				c0.741,0,1.393,0.071,1.957,0.214c0.562,0.146,1.098,0.394,1.605,0.751c-0.11,0.164-0.223,0.334-0.339,0.506
				c-0.117,0.172-0.23,0.339-0.34,0.503c-0.453-0.275-0.913-0.47-1.379-0.594c-0.467-0.129-0.962-0.187-1.484-0.187
				c-0.699,0-1.262,0.163-1.688,0.494c-0.425,0.328-0.638,0.755-0.638,1.278c0,0.246,0.061,0.456,0.184,0.626
				c0.124,0.172,0.291,0.318,0.504,0.433c0.212,0.117,0.465,0.213,0.759,0.29c0.295,0.076,0.612,0.146,0.955,0.216
				c0.424,0.082,0.865,0.172,1.323,0.269c0.458,0.097,0.879,0.246,1.263,0.454c0.382,0.205,0.693,0.482,0.933,0.833
				c0.239,0.348,0.359,0.81,0.359,1.389c0,0.441-0.091,0.839-0.273,1.196c-0.184,0.357-0.444,0.667-0.783,0.927
				c-0.339,0.26-0.746,0.456-1.219,0.594c-0.474,0.137-1.006,0.21-1.595,0.21c-0.686,0-1.36-0.082-2.019-0.239
				c-0.659-0.158-1.311-0.477-1.956-0.956l0.721-1.011c0.507,0.4,1.033,0.678,1.575,0.833
				C185.524,101.595,186.118,101.674,186.764,101.674z"/>
			<path fill="#FFFFFF" d="M198.975,93.766v8.917h-1.339v-8.917h-1.256v-1.257h1.256v-2.037c0-0.424,0.066-0.801,0.196-1.123
				c0.13-0.322,0.309-0.588,0.536-0.801c0.226-0.217,0.494-0.372,0.802-0.477c0.308-0.102,0.635-0.152,0.979-0.152h1.667v1.193
				h-1.482c-0.275,0-0.501,0.041-0.68,0.122c-0.179,0.082-0.319,0.199-0.422,0.339c-0.103,0.147-0.173,0.313-0.207,0.494
				c-0.034,0.187-0.05,0.392-0.05,0.611v1.83h2.841v1.257H198.975z"/>
			<path fill="#FFFFFF" d="M210.609,99.098c0,0.579-0.102,1.094-0.31,1.556c-0.205,0.462-0.494,0.847-0.862,1.163
				c-0.373,0.319-0.807,0.555-1.31,0.722c-0.5,0.163-1.047,0.245-1.636,0.245c-0.592,0-1.136-0.082-1.638-0.245
				c-0.5-0.167-0.933-0.409-1.297-0.734c-0.364-0.321-0.647-0.71-0.855-1.163c-0.205-0.45-0.309-0.965-0.309-1.544v-3.005
				c0-0.576,0.11-1.093,0.329-1.544c0.221-0.453,0.515-0.839,0.886-1.154c0.371-0.313,0.807-0.558,1.308-0.731
				c0.501-0.169,1.034-0.254,1.595-0.254c0.591,0,1.137,0.085,1.639,0.254c0.501,0.173,0.934,0.418,1.296,0.731
				c0.363,0.315,0.649,0.701,0.854,1.154c0.208,0.451,0.31,0.968,0.31,1.544V99.098z M209.27,96.374
				c0-0.491-0.082-0.909-0.249-1.251c-0.164-0.345-0.381-0.623-0.649-0.842c-0.269-0.219-0.566-0.377-0.889-0.473
				c-0.325-0.097-0.646-0.147-0.962-0.147c-0.33,0-0.661,0.05-0.993,0.147c-0.332,0.096-0.63,0.254-0.899,0.473
				c-0.269,0.219-0.485,0.497-0.652,0.842c-0.164,0.342-0.247,0.76-0.247,1.251v2.423c0,0.494,0.076,0.912,0.227,1.263
				c0.152,0.351,0.355,0.634,0.609,0.854c0.256,0.216,0.551,0.377,0.89,0.473c0.336,0.093,0.693,0.14,1.064,0.14
				c0.343,0,0.678-0.05,1.001-0.152c0.325-0.105,0.618-0.26,0.879-0.473c0.263-0.214,0.472-0.491,0.631-0.842
				c0.158-0.351,0.237-0.769,0.237-1.263V96.374z"/>
			<path fill="#FFFFFF" d="M217.958,93.868c-0.924,0.096-1.69,0.281-2.298,0.547c-0.607,0.269-1.076,0.512-1.408,0.731v7.537h-1.337
				V92.509h1.175l0.162,1.506h0.041c0.193-0.179,0.43-0.363,0.711-0.559c0.282-0.193,0.583-0.362,0.907-0.512
				c0.323-0.152,0.659-0.281,1.01-0.383c0.348-0.102,0.696-0.16,1.038-0.175V93.868z"/>
			<path fill="#FFFFFF" d="M228.749,88.349c1.51,0,2.788,0.392,3.83,1.178l-0.741,1.129c-0.411-0.316-0.889-0.552-1.431-0.719
				c-0.542-0.163-1.093-0.248-1.658-0.248c-0.453,0-0.892,0.07-1.318,0.208c-0.424,0.137-0.81,0.348-1.152,0.637
				c-0.343,0.286-0.617,0.664-0.824,1.126c-0.205,0.456-0.308,1.011-0.308,1.655v4.529c0,0.649,0.107,1.199,0.319,1.66
				c0.212,0.459,0.487,0.836,0.825,1.134c0.336,0.293,0.717,0.512,1.141,0.658c0.427,0.14,0.852,0.216,1.278,0.216
				c0.576,0,1.14-0.079,1.688-0.239c0.55-0.155,1.042-0.412,1.484-0.769l0.719,1.111c-0.398,0.313-0.933,0.597-1.605,0.845
				c-0.673,0.245-1.421,0.369-2.245,0.369c-0.728,0-1.398-0.108-2.009-0.328c-0.611-0.219-1.141-0.535-1.594-0.947
				c-0.453-0.412-0.806-0.909-1.06-1.485c-0.254-0.576-0.381-1.219-0.381-1.933v-5.131c0-0.699,0.13-1.333,0.392-1.903
				c0.26-0.57,0.617-1.061,1.07-1.474c0.451-0.409,0.985-0.725,1.595-0.944C227.373,88.463,228.035,88.349,228.749,88.349z"/>
			<path fill="#FFFFFF" d="M242.402,99.098c0,0.579-0.102,1.094-0.31,1.556c-0.205,0.462-0.494,0.847-0.864,1.163
				c-0.371,0.319-0.805,0.555-1.308,0.722c-0.5,0.163-1.046,0.245-1.637,0.245c-0.591,0-1.136-0.082-1.637-0.245
				c-0.5-0.167-0.932-0.409-1.297-0.734c-0.364-0.321-0.647-0.71-0.855-1.163c-0.205-0.45-0.308-0.965-0.308-1.544v-3.005
				c0-0.576,0.11-1.093,0.329-1.544c0.221-0.453,0.515-0.839,0.886-1.154c0.371-0.313,0.807-0.558,1.308-0.731
				c0.501-0.169,1.033-0.254,1.594-0.254c0.591,0,1.137,0.085,1.639,0.254c0.501,0.173,0.932,0.418,1.297,0.731
				c0.362,0.315,0.649,0.701,0.853,1.154c0.208,0.451,0.31,0.968,0.31,1.544V99.098z M241.062,96.374
				c0-0.491-0.081-0.909-0.248-1.251c-0.164-0.345-0.381-0.623-0.649-0.842c-0.271-0.219-0.567-0.377-0.889-0.473
				c-0.325-0.097-0.646-0.147-0.962-0.147c-0.331,0-0.661,0.05-0.992,0.147c-0.332,0.096-0.63,0.254-0.899,0.473
				c-0.269,0.219-0.486,0.497-0.652,0.842c-0.165,0.342-0.247,0.76-0.247,1.251v2.423c0,0.494,0.076,0.912,0.227,1.263
				c0.152,0.351,0.355,0.634,0.609,0.854c0.256,0.216,0.551,0.377,0.891,0.473c0.336,0.093,0.692,0.14,1.064,0.14
				c0.343,0,0.678-0.05,1.001-0.152c0.324-0.105,0.618-0.26,0.878-0.473c0.263-0.214,0.472-0.491,0.632-0.842
				c0.157-0.351,0.236-0.769,0.236-1.263V96.374z"/>
			<path fill="#FFFFFF" d="M248.839,92.409c0.701,0,1.254,0.152,1.663,0.459c0.405,0.31,0.705,0.705,0.898,1.187
				c0.424-0.357,0.807-0.646,1.148-0.865c0.342-0.22,0.655-0.389,0.934-0.506c0.282-0.117,0.528-0.19,0.74-0.225
				c0.212-0.035,0.414-0.05,0.605-0.05c0.973,0,1.718,0.275,2.238,0.831c0.521,0.555,0.78,1.391,0.78,2.505v6.937h-1.339v-6.61
				c0-0.769-0.142-1.351-0.424-1.748c-0.283-0.397-0.776-0.599-1.479-0.599c-0.427,0-0.883,0.126-1.365,0.38
				c-0.483,0.257-1.013,0.617-1.592,1.082c0.028,0.152,0.046,0.286,0.052,0.4c0.007,0.117,0.012,0.251,0.012,0.403v6.692h-1.339
				v-6.651c0-1.537-0.594-2.306-1.779-2.306c-0.413,0-0.855,0.096-1.323,0.29c-0.47,0.19-1.035,0.529-1.695,1.008v7.659h-1.339
				V92.509h1.154l0.185,1.298c0.385-0.287,0.732-0.524,1.043-0.711c0.31-0.187,0.595-0.327,0.857-0.433
				c0.262-0.102,0.503-0.169,0.722-0.205C248.418,92.424,248.631,92.409,248.839,92.409z"/>
			<path fill="#FFFFFF" d="M260.933,92.55l0.186,1.196c0.437-0.275,0.834-0.5,1.191-0.679c0.356-0.178,0.674-0.315,0.953-0.412
				c0.281-0.097,0.532-0.161,0.75-0.196c0.218-0.035,0.425-0.05,0.615-0.05c0.985,0,1.783,0.284,2.391,0.862
				c0.61,0.576,0.915,1.477,0.915,2.699v3.251c0,1.154-0.316,2.041-0.944,2.657c-0.63,0.619-1.5,0.929-2.608,0.929
				c-0.398,0-0.854-0.041-1.366-0.126c-0.513-0.084-1.145-0.301-1.898-0.661v4.78h-1.339V92.55H260.933z M261.119,100.707
				c0.7,0.315,1.29,0.535,1.77,0.658c0.481,0.123,0.941,0.187,1.38,0.187c0.713,0,1.281-0.19,1.699-0.567
				c0.418-0.377,0.628-1.015,0.628-1.903v-2.947c0-0.892-0.185-1.517-0.555-1.874c-0.371-0.357-0.872-0.535-1.502-0.535
				c-0.208,0-0.451,0.035-0.731,0.102c-0.284,0.07-0.576,0.163-0.877,0.29c-0.301,0.123-0.606,0.272-0.915,0.441
				c-0.31,0.173-0.608,0.354-0.896,0.547V100.707z"/>
			<path fill="#FFFFFF" d="M271.209,98.134v0.801c0,0.479,0.079,0.889,0.237,1.225c0.157,0.339,0.367,0.611,0.627,0.825
				c0.261,0.213,0.559,0.365,0.896,0.462c0.336,0.096,0.689,0.143,1.061,0.143c0.438,0,0.889-0.079,1.348-0.245
				c0.459-0.164,0.889-0.433,1.288-0.801l0.843,0.924c-0.48,0.482-1.023,0.822-1.625,1.02c-0.605,0.199-1.237,0.298-1.894,0.298
				c-0.578,0-1.117-0.076-1.617-0.228c-0.503-0.146-0.935-0.377-1.303-0.687c-0.366-0.31-0.658-0.699-0.874-1.163
				c-0.217-0.468-0.325-1.009-0.325-1.626v-2.76c0-0.591,0.099-1.131,0.299-1.619c0.197-0.485,0.475-0.898,0.83-1.234
				c0.357-0.336,0.781-0.6,1.275-0.783c0.493-0.184,1.034-0.275,1.623-0.275c0.588,0,1.126,0.088,1.612,0.266
				c0.485,0.178,0.902,0.436,1.253,0.769c0.349,0.339,0.619,0.743,0.81,1.207c0.193,0.468,0.289,0.988,0.289,1.564v1.918H271.209z
				 M276.521,96.386c0-0.491-0.073-0.906-0.217-1.248c-0.146-0.342-0.342-0.62-0.59-0.839c-0.247-0.219-0.529-0.377-0.848-0.482
				c-0.315-0.102-0.64-0.155-0.971-0.155c-0.345,0-0.678,0.056-1.003,0.167c-0.324,0.108-0.611,0.275-0.858,0.491
				c-0.249,0.219-0.449,0.497-0.6,0.827c-0.152,0.336-0.227,0.737-0.227,1.199V97h5.312V96.386z"/>
			<path fill="#FFFFFF" d="M285.602,102.501c-0.357,0.108-0.719,0.181-1.09,0.223c-0.372,0.044-0.652,0.061-0.845,0.061
				c-1.043,0-1.783-0.236-2.224-0.707c-0.439-0.474-0.658-1.266-0.658-2.374v-5.938h-1.503v-1.257h1.523l0.351-2.388h0.968v2.388
				h2.923v1.257h-2.923v5.561c0,0.85,0.141,1.433,0.421,1.739c0.282,0.309,0.719,0.461,1.31,0.461c0.205,0,0.441-0.011,0.708-0.041
				c0.268-0.026,0.545-0.067,0.835-0.123L285.602,102.501z"/>
			<path fill="#FFFFFF" d="M288.814,89.317c0,0.233-0.086,0.435-0.257,0.61c-0.173,0.17-0.375,0.257-0.608,0.257
				s-0.436-0.087-0.608-0.257c-0.169-0.175-0.257-0.377-0.257-0.61c0-0.246,0.088-0.454,0.257-0.617
				c0.172-0.164,0.374-0.246,0.608-0.246s0.436,0.082,0.608,0.246C288.728,88.863,288.814,89.071,288.814,89.317z M287.271,102.683
				V92.509h1.337v10.174H287.271z"/>
			<path fill="#FFFFFF" d="M296.989,102.501c-0.357,0.108-0.719,0.181-1.091,0.223c-0.372,0.044-0.652,0.061-0.845,0.061
				c-1.044,0-1.784-0.236-2.225-0.707c-0.438-0.474-0.658-1.266-0.658-2.374v-5.938h-1.503v-1.257h1.523l0.351-2.388h0.968v2.388
				h2.923v1.257h-2.923v5.561c0,0.85,0.14,1.433,0.421,1.739c0.284,0.309,0.718,0.461,1.308,0.461c0.207,0,0.443-0.011,0.711-0.041
				c0.268-0.026,0.545-0.067,0.835-0.123L296.989,102.501z"/>
			<path fill="#FFFFFF" d="M300.201,89.317c0,0.233-0.086,0.435-0.257,0.61c-0.173,0.17-0.374,0.257-0.608,0.257
				c-0.234,0-0.436-0.087-0.608-0.257c-0.171-0.175-0.257-0.377-0.257-0.61c0-0.246,0.086-0.454,0.257-0.617
				c0.172-0.164,0.374-0.246,0.608-0.246c0.233,0,0.435,0.082,0.608,0.246C300.115,88.863,300.201,89.071,300.201,89.317z
				 M298.656,102.683V92.509h1.339v10.174H298.656z"/>
			<path fill="#FFFFFF" d="M306.048,100.87l1.278-3.87l1.523-4.467h1.462l-3.644,10.15h-1.358c-0.62-1.69-1.225-3.38-1.824-5.067
				c-0.597-1.689-1.205-3.382-1.821-5.083h1.462l1.482,4.365c0.138,0.409,0.275,0.816,0.412,1.213
				c0.138,0.398,0.26,0.778,0.371,1.135c0.11,0.357,0.212,0.675,0.309,0.956c0.094,0.281,0.171,0.506,0.227,0.67H306.048z"/>
			<path fill="#FFFFFF" d="M312.906,98.134v0.801c0,0.479,0.078,0.889,0.235,1.225c0.159,0.339,0.367,0.611,0.627,0.825
				c0.262,0.213,0.561,0.365,0.898,0.462c0.336,0.096,0.689,0.143,1.059,0.143c0.44,0,0.889-0.079,1.349-0.245
				c0.459-0.164,0.889-0.433,1.286-0.801l0.845,0.924c-0.481,0.482-1.023,0.822-1.627,1.02c-0.604,0.199-1.235,0.298-1.894,0.298
				c-0.576,0-1.115-0.076-1.616-0.228c-0.502-0.146-0.934-0.377-1.302-0.687c-0.367-0.31-0.658-0.699-0.874-1.163
				c-0.217-0.468-0.325-1.009-0.325-1.626v-2.76c0-0.591,0.099-1.131,0.297-1.619c0.199-0.485,0.475-0.898,0.832-1.234
				c0.357-0.336,0.781-0.6,1.275-0.783c0.493-0.184,1.032-0.275,1.623-0.275c0.588,0,1.126,0.088,1.612,0.266
				c0.485,0.178,0.904,0.436,1.253,0.769c0.348,0.339,0.619,0.743,0.81,1.207c0.193,0.468,0.289,0.988,0.289,1.564v1.918H312.906z
				 M318.218,96.386c0-0.491-0.073-0.906-0.218-1.248c-0.145-0.342-0.341-0.62-0.589-0.839c-0.248-0.219-0.53-0.377-0.848-0.482
				c-0.315-0.102-0.64-0.155-0.971-0.155c-0.345,0-0.68,0.056-1.003,0.167c-0.324,0.108-0.611,0.275-0.858,0.491
				c-0.249,0.219-0.449,0.497-0.6,0.827c-0.153,0.336-0.227,0.737-0.227,1.199V97h5.312V96.386z"/>
			<path fill="#FFFFFF" d="M333.477,102.414c-0.769,0.275-1.553,0.412-2.347,0.412c-0.728,0-1.404-0.108-2.03-0.328
				c-0.624-0.219-1.166-0.535-1.625-0.947c-0.46-0.412-0.822-0.909-1.082-1.485c-0.261-0.576-0.391-1.219-0.391-1.933v-5.131
				c0-0.699,0.133-1.333,0.396-1.903c0.264-0.57,0.627-1.061,1.092-1.474c0.463-0.409,1.014-0.725,1.651-0.944
				c0.641-0.219,1.33-0.333,2.07-0.333c0.742,0,1.436,0.1,2.08,0.293c0.645,0.19,1.229,0.485,1.749,0.886l-0.74,1.129
				c-0.398-0.316-0.876-0.552-1.433-0.719c-0.555-0.163-1.108-0.248-1.657-0.248c-0.48,0-0.943,0.07-1.389,0.208
				c-0.447,0.137-0.847,0.348-1.206,0.637c-0.355,0.286-0.642,0.664-0.855,1.126c-0.213,0.456-0.318,1.011-0.318,1.655v4.529
				c0,0.649,0.105,1.199,0.31,1.66c0.208,0.459,0.479,0.836,0.817,1.134c0.337,0.293,0.726,0.512,1.166,0.658
				c0.44,0.14,0.895,0.216,1.364,0.216c0.331,0,0.763-0.056,1.301-0.166c0.537-0.108,1.093-0.392,1.672-0.842v-3.748h-2.368v-1.339
				h3.81v5.663C334.923,101.695,334.245,102.142,333.477,102.414z"/>
			<path fill="#FFFFFF" d="M344.142,101.569c-0.893,0.523-1.619,0.856-2.182,1c-0.564,0.146-1.044,0.216-1.441,0.216
				c-0.962,0-1.736-0.257-2.328-0.772c-0.59-0.514-0.885-1.245-0.885-2.193c0-0.549,0.119-1.011,0.36-1.391
				c0.24-0.375,0.54-0.682,0.897-0.915c0.357-0.233,0.74-0.4,1.151-0.506c0.412-0.102,0.796-0.152,1.153-0.152h3.317v-0.9
				c0-0.793-0.217-1.371-0.649-1.74c-0.433-0.369-1.075-0.556-1.927-0.556c-0.423,0-0.891,0.062-1.4,0.178
				c-0.508,0.117-1.023,0.372-1.544,0.772l-0.68-1.032c0.618-0.459,1.238-0.768,1.864-0.932c0.626-0.158,1.245-0.237,1.864-0.237
				c1.358,0,2.333,0.299,2.924,0.904c0.59,0.605,0.885,1.468,0.885,2.596v6.774h-1.153l-0.184-1.093L344.142,101.569z
				 M344.185,97.988h-3.008c-0.245,0-0.515,0.017-0.803,0.053c-0.288,0.032-0.555,0.114-0.803,0.245
				c-0.248,0.129-0.453,0.316-0.617,0.556c-0.166,0.239-0.248,0.567-0.248,0.979c0,0.603,0.199,1.047,0.597,1.327
				c0.398,0.284,0.885,0.421,1.461,0.421c0.275,0,0.564-0.041,0.865-0.123c0.303-0.082,0.605-0.184,0.906-0.307
				c0.303-0.123,0.594-0.26,0.876-0.415c0.282-0.149,0.539-0.293,0.773-0.43V97.988z"/>
			<path fill="#FFFFFF" d="M351.978,92.409c0.702,0,1.258,0.152,1.664,0.459c0.406,0.31,0.706,0.705,0.899,1.187
				c0.425-0.357,0.809-0.646,1.148-0.865c0.344-0.22,0.654-0.389,0.935-0.506c0.28-0.117,0.526-0.19,0.739-0.225
				c0.211-0.035,0.412-0.05,0.605-0.05c0.973,0,1.717,0.275,2.237,0.831c0.52,0.555,0.78,1.391,0.78,2.505v6.937h-1.337v-6.61
				c0-0.769-0.142-1.351-0.425-1.748c-0.281-0.397-0.775-0.599-1.478-0.599c-0.426,0-0.881,0.126-1.364,0.38
				c-0.482,0.257-1.014,0.617-1.592,1.082c0.027,0.152,0.044,0.286,0.052,0.4c0.006,0.117,0.009,0.251,0.009,0.403v6.692h-1.338
				v-6.651c0-1.537-0.592-2.306-1.778-2.306c-0.415,0-0.854,0.096-1.324,0.29c-0.468,0.19-1.033,0.529-1.696,1.008v7.659h-1.338
				V92.509h1.157l0.181,1.298c0.386-0.287,0.734-0.524,1.044-0.711c0.31-0.187,0.596-0.327,0.858-0.433
				c0.261-0.102,0.503-0.169,0.723-0.205C351.558,92.424,351.772,92.409,351.978,92.409z"/>
			<path fill="#FFFFFF" d="M364.219,98.134v0.801c0,0.479,0.078,0.889,0.236,1.225c0.158,0.339,0.368,0.611,0.628,0.825
				c0.261,0.213,0.559,0.365,0.896,0.462c0.336,0.096,0.689,0.143,1.061,0.143c0.438,0,0.888-0.079,1.347-0.245
				c0.459-0.164,0.889-0.433,1.286-0.801l0.845,0.924c-0.48,0.482-1.023,0.822-1.627,1.02c-0.604,0.199-1.235,0.298-1.894,0.298
				c-0.576,0-1.116-0.076-1.615-0.228c-0.503-0.146-0.936-0.377-1.303-0.687c-0.366-0.31-0.658-0.699-0.874-1.163
				c-0.217-0.468-0.325-1.009-0.325-1.626v-2.76c0-0.591,0.099-1.131,0.298-1.619c0.198-0.485,0.476-0.898,0.831-1.234
				c0.357-0.336,0.781-0.6,1.275-0.783c0.493-0.184,1.033-0.275,1.622-0.275c0.588,0,1.126,0.088,1.612,0.266
				c0.486,0.178,0.904,0.436,1.253,0.769c0.349,0.339,0.62,0.743,0.81,1.207c0.194,0.468,0.29,0.988,0.29,1.564v1.918H364.219z
				 M369.531,96.386c0-0.491-0.073-0.906-0.217-1.248c-0.146-0.342-0.342-0.62-0.59-0.839c-0.247-0.219-0.531-0.377-0.846-0.482
				c-0.317-0.102-0.642-0.155-0.973-0.155c-0.345,0-0.677,0.056-1.002,0.167c-0.325,0.108-0.611,0.275-0.858,0.491
				c-0.248,0.219-0.448,0.497-0.599,0.827c-0.151,0.336-0.226,0.737-0.226,1.199V97h5.312V96.386z"/>
			<path fill="#FFFFFF" d="M378.077,93.868c-0.926,0.096-1.69,0.281-2.298,0.547c-0.608,0.269-1.078,0.512-1.41,0.731v7.537h-1.337
				V92.509h1.176l0.161,1.506h0.042c0.193-0.179,0.429-0.363,0.71-0.559c0.282-0.193,0.584-0.362,0.906-0.512
				c0.323-0.152,0.661-0.281,1.008-0.383c0.351-0.102,0.697-0.16,1.041-0.175V93.868z"/>
			<path fill="#FFFFFF" d="M382.895,101.674c0.289,0,0.575-0.029,0.865-0.094c0.289-0.058,0.549-0.163,0.783-0.309
				c0.232-0.144,0.421-0.331,0.566-0.564c0.144-0.234,0.216-0.521,0.216-0.868c0-0.436-0.144-0.772-0.431-1.006
				c-0.289-0.234-0.695-0.412-1.216-0.535c-0.481-0.123-0.992-0.231-1.535-0.322c-0.54-0.087-1.039-0.225-1.491-0.409
				c-0.454-0.184-0.829-0.444-1.123-0.783c-0.296-0.336-0.444-0.807-0.444-1.409c0-0.441,0.09-0.842,0.269-1.207
				c0.178-0.363,0.423-0.676,0.741-0.936c0.314-0.26,0.697-0.462,1.142-0.608c0.447-0.143,0.93-0.214,1.453-0.214
				c0.739,0,1.391,0.071,1.955,0.214c0.563,0.146,1.1,0.394,1.605,0.751c-0.108,0.164-0.223,0.334-0.34,0.506
				c-0.116,0.172-0.227,0.339-0.339,0.503c-0.453-0.275-0.914-0.47-1.38-0.594c-0.466-0.129-0.962-0.187-1.482-0.187
				c-0.7,0-1.263,0.163-1.69,0.494c-0.424,0.328-0.637,0.755-0.637,1.278c0,0.246,0.061,0.456,0.184,0.626
				c0.123,0.172,0.291,0.318,0.503,0.433c0.214,0.117,0.465,0.213,0.76,0.29c0.294,0.076,0.611,0.146,0.954,0.216
				c0.425,0.082,0.865,0.172,1.324,0.269c0.459,0.097,0.88,0.246,1.263,0.454c0.383,0.205,0.692,0.482,0.933,0.833
				c0.239,0.348,0.36,0.81,0.36,1.389c0,0.441-0.09,0.839-0.273,1.196s-0.443,0.667-0.783,0.927
				c-0.339,0.26-0.745,0.456-1.219,0.594c-0.473,0.137-1.005,0.21-1.595,0.21c-0.687,0-1.36-0.082-2.018-0.239
				c-0.66-0.158-1.312-0.477-1.956-0.956l0.719-1.011c0.509,0.4,1.033,0.678,1.576,0.833
				C381.656,101.595,382.25,101.674,382.895,101.674z"/>
		</g>
	</g>
	<g>
		<path fill="#FFFFFF" d="M140.446,52.574l-3.293,6.548l-4.015,7.648h-5.098l-3.966-7.487l-3.453-6.709h-0.203v19.096h-7.074V36.107
			h6.507l6.348,12.539l4.286,8.776h0.31l4.336-8.984l6.091-12.331h6.506v35.564h-7.07V52.574H140.446z"/>
		<path fill="#FFFFFF" d="M180.871,60.316c0,1.924-0.362,3.61-1.083,5.058c-0.722,1.45-1.7,2.672-2.937,3.669
			c-1.235,0.997-2.686,1.748-4.354,2.239c-1.663,0.506-3.428,0.746-5.28,0.746c-1.858,0-3.617-0.239-5.281-0.746
			c-1.669-0.491-3.119-1.242-4.354-2.239c-1.236-0.997-2.215-2.219-2.939-3.669c-0.722-1.447-1.083-3.134-1.083-5.058V47.257
			c0-1.897,0.381-3.567,1.135-5.008c0.758-1.444,1.768-2.657,3.04-3.613c1.27-0.968,2.733-1.684,4.38-2.169
			c1.65-0.483,3.35-0.725,5.102-0.725c1.75,0,3.453,0.26,5.101,0.775c1.648,0.52,3.108,1.266,4.381,2.251
			c1.27,0.976,2.282,2.193,3.04,3.657c0.753,1.462,1.133,3.146,1.133,5.04V60.316z M173.799,48.698c0-1.175-0.19-2.157-0.571-2.97
			c-0.376-0.801-0.877-1.467-1.494-1.988c-0.62-0.512-1.317-0.889-2.093-1.137c-0.77-0.24-1.575-0.354-2.398-0.354
			c-0.825,0-1.636,0.114-2.428,0.354c-0.791,0.249-1.495,0.626-2.116,1.137c-0.619,0.521-1.118,1.187-1.499,1.988
			c-0.378,0.813-0.566,1.795-0.566,2.97v10.375c0,1.178,0.189,2.166,0.566,2.997c0.381,0.83,0.88,1.494,1.499,2.011
			c0.622,0.52,1.326,0.889,2.116,1.111c0.792,0.228,1.603,0.339,2.428,0.339c0.823,0,1.629-0.111,2.398-0.339
			c0.776-0.222,1.473-0.591,2.093-1.111c0.617-0.518,1.117-1.181,1.494-2.011c0.381-0.831,0.571-1.818,0.571-2.997V48.698z"/>
		<path fill="#FFFFFF" d="M213.704,61.105c0,1.447-0.225,2.804-0.672,4.078c-0.447,1.26-1.099,2.382-1.962,3.344
			c-0.86,0.959-1.928,1.725-3.198,2.298c-1.275,0.567-2.757,0.845-4.441,0.845h-16.679V36.107h16.009
			c1.783,0,3.324,0.257,4.616,0.775c1.292,0.515,2.359,1.225,3.201,2.119c0.839,0.892,1.474,1.927,1.889,3.096
			c0.409,1.178,0.614,2.4,0.614,3.675c0,1.316-0.351,2.655-1.055,4.032c-0.703,1.383-1.815,2.45-3.33,3.21
			c0.86,0.421,1.599,0.933,2.219,1.576c0.623,0.629,1.137,1.321,1.552,2.055c0.409,0.743,0.719,1.503,0.927,2.269
			C213.601,59.69,213.704,60.418,213.704,61.105z M205.805,46.476c0-1.295-0.389-2.298-1.164-2.988
			c-0.77-0.687-1.985-1.035-3.641-1.035h-7.173v7.788h7.277c1.482,0,2.637-0.339,3.46-1.023
			C205.39,48.531,205.805,47.622,205.805,46.476z M206.22,60.859c0-1.371-0.434-2.479-1.292-3.315
			c-0.86-0.836-2.049-1.257-3.563-1.257h-7.538v9.034h7.59c1.585,0,2.777-0.398,3.59-1.202
			C205.814,63.312,206.22,62.222,206.22,60.859z"/>
		<path fill="#FFFFFF" d="M238.537,64.344h-12.39l-2.323,7.326h-7.541l12.497-35.564h7.226l12.391,35.564h-7.693L238.537,64.344z
			 M228.057,58.41h8.568l-1.393-4.543l-2.788-9.399h-0.206l-2.737,9.238L228.057,58.41z"/>
		<path fill="#FFFFFF" d="M252.061,71.671V36.107h3.616v32.316h19.616v3.248H252.061z"/>
		<path fill="#FFFFFF" d="M284.996,71.671h-3.61V58.196c-1.789-3.722-3.58-7.394-5.373-11.045
			c-1.786-3.646-3.594-7.332-5.417-11.045h3.973c0.141,0.272,0.415,0.851,0.831,1.731c0.412,0.871,0.889,1.906,1.441,3.09
			c0.552,1.19,1.149,2.462,1.783,3.827c0.639,1.354,1.254,2.666,1.86,3.92c0.602,1.251,1.148,2.4,1.64,3.432
			c0.491,1.032,0.874,1.807,1.143,2.315c0.174-0.374,0.477-1.038,0.918-2c0.442-0.971,0.956-2.07,1.537-3.306
			c0.584-1.246,1.197-2.549,1.837-3.929c0.635-1.374,1.237-2.675,1.804-3.894c0.567-1.222,1.076-2.312,1.523-3.257
			c0.447-0.95,0.757-1.596,0.931-1.93h3.872l-10.691,21.99V71.671z"/>
		<path fill="#FFFFFF" d="M314.271,39.457v32.214h-3.613V39.457H299.92v-3.35h24.987v3.35H314.271z"/>
		<path fill="#FFFFFF" d="M328.761,71.671V36.107h3.61v35.564H328.761z"/>
		<path fill="#FFFFFF" d="M351.99,35.741c3.789,0,6.988,0.985,9.607,2.941l-1.862,2.842c-1.032-0.792-2.228-1.397-3.587-1.81
			c-1.361-0.403-2.745-0.623-4.158-0.623c-1.136,0-2.236,0.181-3.303,0.518c-1.067,0.348-2.028,0.883-2.892,1.599
			c-0.86,0.728-1.549,1.664-2.063,2.818c-0.518,1.158-0.773,2.54-0.773,4.157v11.358c0,1.62,0.264,3.002,0.799,4.157
			c0.533,1.152,1.222,2.102,2.067,2.836c0.844,0.743,1.795,1.292,2.862,1.658c1.067,0.363,2.136,0.541,3.201,0.541
			c1.444,0,2.856-0.202,4.235-0.597c1.375-0.392,2.615-1.041,3.715-1.938l1.808,2.789c-0.999,0.795-2.342,1.497-4.028,2.116
			c-1.687,0.623-3.559,0.924-5.628,0.924c-1.826,0-3.499-0.269-5.033-0.819c-1.53-0.552-2.863-1.342-3.999-2.374
			c-1.137-1.029-2.025-2.274-2.659-3.719c-0.637-1.45-0.956-3.061-0.956-4.856V47.412c0-1.757,0.324-3.35,0.982-4.78
			c0.652-1.427,1.546-2.66,2.68-3.686c1.134-1.032,2.472-1.83,4.006-2.371C348.544,36.016,350.201,35.741,351.99,35.741z"/>
		<path fill="#FFFFFF" d="M389.782,62.07c0,1.552-0.304,2.938-0.904,4.16c-0.602,1.216-1.445,2.245-2.531,3.09
			c-1.083,0.845-2.391,1.506-3.923,1.962c-1.529,0.465-3.225,0.702-5.087,0.702c-2.37,0-4.581-0.331-6.63-0.982
			c-2.049-0.649-4.037-1.652-5.964-2.996l1.908-2.684c1.585,1.009,3.289,1.815,5.113,2.459c1.825,0.632,3.699,0.953,5.625,0.953
			c2.585,0,4.666-0.579,6.251-1.731c1.582-1.146,2.376-2.798,2.376-4.932c0-1.272-0.277-2.31-0.827-3.099
			c-0.553-0.786-1.268-1.441-2.145-1.932c-0.878-0.494-1.858-0.889-2.94-1.161c-1.085-0.278-2.164-0.523-3.231-0.728
			c-1.412-0.237-2.777-0.585-4.103-1.032c-1.328-0.45-2.506-1.035-3.536-1.78c-1.032-0.737-1.869-1.669-2.505-2.786
			c-0.638-1.125-0.954-2.505-0.954-4.154c0-1.45,0.26-2.777,0.786-3.982c0.519-1.199,1.281-2.239,2.268-3.119
			c0.992-0.877,2.186-1.552,3.58-2.041c1.393-0.479,2.967-0.716,4.724-0.716c1.96,0,3.888,0.175,5.78,0.538
			c1.891,0.363,3.684,1.038,5.371,2.038l-1.652,3.093c-1.513-0.821-3.099-1.427-4.751-1.801c-1.651-0.38-3.287-0.567-4.904-0.567
			c-1,0-1.952,0.12-2.867,0.386c-0.909,0.26-1.723,0.658-2.426,1.216c-0.707,0.55-1.26,1.246-1.675,2.084
			c-0.415,0.845-0.623,1.842-0.623,2.97c0,1.102,0.277,2.023,0.828,2.739c0.544,0.725,1.251,1.322,2.112,1.804
			c0.855,0.488,1.801,0.863,2.829,1.134c1.029,0.278,2.046,0.523,3.039,0.728c1.544,0.339,3.023,0.722,4.427,1.161
			c1.408,0.43,2.637,1.015,3.685,1.754c1.047,0.74,1.888,1.693,2.524,2.839C389.466,58.804,389.782,60.281,389.782,62.07z"/>
		<g>
			<g>
				<polygon fill="#585682" points="12.659,30.929 52.132,9.442 53.203,22.658 				"/>
			</g>
			<g>
				<polygon fill="#827CA8" points="94.117,30.47 52.089,9.184 53.203,22.658 				"/>
			</g>
			<g>
				<polygon fill="#2F2D58" points="55.435,101.326 80.356,69.896 94.117,76.219 				"/>
			</g>
			<g>
				<polygon fill="#302F51" points="55.435,101.326 30.514,71.01 12.642,76.386 				"/>
			</g>
			<g>
				<polygon fill="#363558" points="94.117,30.47 94.117,76.219 80.356,69.896 				"/>
			</g>
			<g>
				<polygon fill="#282747" points="12.659,32.142 12.642,76.386 30.514,71.01 				"/>
			</g>
			<g>
				<polygon fill="#48477F" points="94.117,30.47 80.356,69.896 52.934,22.658 				"/>
			</g>
			<g>
				<polygon fill="#3E396B" points="12.66,30.406 30.451,71.01 53.203,22.658 				"/>
			</g>
			<g>
				<polygon fill="#4E508B" points="55.435,101.326 80.356,69.896 30.451,71.01 				"/>
			</g>
			<g>
				<polygon fill="#3D3A69" points="53.203,22.658 30.514,71.01 80.356,69.896 				"/>
			</g>
			<g>
				<g>
					<path fill="#FFFFFF" d="M29.905,71.407l23.263-49.573l27.838,48.427L29.905,71.407L29.905,71.407z M53.237,23.483L31.12,70.615
						l48.583-1.087L53.237,23.483L53.237,23.483z"/>
				</g>
				<g>
					<path fill="#FFFFFF" d="M12.731,30.78l-0.251-0.714L52.466,8.831l1.145,14.138L12.731,30.78L12.731,30.78z M51.799,10.053
						l-36.723,19.5l37.719-7.206L51.799,10.053L51.799,10.053z"/>
				</g>
				<g>
					<path fill="#FFFFFF" d="M94.046,30.844L53.03,22.977L51.986,8.798l42.303,21.33L94.046,30.844L94.046,30.844z M53.749,22.337
						l37.755,7.241L52.848,10.088L53.749,22.337L53.749,22.337z"/>
				</g>
				<g>
					<path fill="#FFFFFF" d="M55.642,101.648l-0.506-0.558l25.111-31.67l14.424,7.017L55.642,101.648L55.642,101.648z
						 M80.463,70.373L57.172,99.747l35.946-23.218L80.463,70.373L80.463,70.373z"/>
				</g>
				<g>
					<path fill="#FFFFFF" d="M55.242,101.656L11.689,76.275l18.957-5.704l0.162,0.199l24.92,30.314L55.242,101.656L55.242,101.656z
						 M13.593,76.5l40.194,23.426L30.38,71.451L13.593,76.5L13.593,76.5z"/>
				</g>
				<g>
					<path fill="#FFFFFF" d="M94.499,76.816L79.88,70.098l13.877-39.756l0.743,0.129V76.816L94.499,76.816z M80.83,69.695
						l12.905,5.928V32.721L80.83,69.695L80.83,69.695z"/>
				</g>
				<g>
					<path fill="#FFFFFF" d="M12.26,76.903l0.017-44.761l0.73-0.161l18.036,39.271L12.26,76.903L12.26,76.903z M13.041,33.888
						l-0.018,41.987l16.959-5.102L13.041,33.888L13.041,33.888z"/>
				</g>
				<g>
					<path fill="#FFFFFF" d="M80.439,70.811L52.646,22.127l41.978,8.051L80.439,70.811L80.439,70.811z M54.132,23.191L80.27,68.978
						l13.341-38.219L54.132,23.191L54.132,23.191z"/>
				</g>
				<g>
					<path fill="#FFFFFF" d="M30.438,71.937l-18.32-41.818l41.749-7.975L30.438,71.937L30.438,71.937z M13.202,30.689l17.262,39.4
						l22.075-46.916L13.202,30.689L13.202,30.689z"/>
				</g>
			</g>
			<g>
				<circle fill="#FFFFFF" cx="94.117" cy="30.47" r="1.114"/>
				<path fill="#FFFFFF" d="M94.117,33.11c-1.456,0-2.642-1.184-2.642-2.64c0-1.459,1.186-2.643,2.642-2.643
					s2.642,1.184,2.642,2.643C96.759,31.926,95.573,33.11,94.117,33.11L94.117,33.11z M94.117,30.055
					c-0.228,0-0.414,0.187-0.414,0.415c0,0.228,0.186,0.412,0.414,0.412c0.229,0,0.414-0.184,0.414-0.412
					C94.532,30.242,94.346,30.055,94.117,30.055L94.117,30.055z"/>
			</g>
			<g>
				<circle fill="#FFFFFF" cx="80.355" cy="69.896" r="1.113"/>
				<path fill="#FFFFFF" d="M80.356,72.539c-1.457,0-2.642-1.187-2.642-2.643c0-1.459,1.185-2.643,2.642-2.643
					c1.456,0,2.641,1.184,2.641,2.643C82.996,71.352,81.812,72.539,80.356,72.539L80.356,72.539z M80.356,69.481
					c-0.229,0-0.415,0.187-0.415,0.415c0,0.228,0.186,0.415,0.415,0.415c0.228,0,0.414-0.187,0.414-0.415
					C80.769,69.668,80.584,69.481,80.356,69.481L80.356,69.481z"/>
			</g>
			<g>
				<circle fill="#FFFFFF" cx="94.117" cy="76.219" r="1.114"/>
				<path fill="#FFFFFF" d="M94.117,78.859c-1.456,0-2.642-1.184-2.642-2.64c0-1.456,1.186-2.64,2.642-2.64s2.642,1.184,2.642,2.64
					C96.759,77.675,95.573,78.859,94.117,78.859L94.117,78.859z M94.117,75.804c-0.228,0-0.414,0.187-0.414,0.415
					c0,0.228,0.186,0.415,0.414,0.415c0.229,0,0.414-0.187,0.414-0.415C94.532,75.991,94.346,75.804,94.117,75.804L94.117,75.804z"
					/>
			</g>
			<g>
				<circle fill="#FFFFFF" cx="55.434" cy="100.563" r="1.114"/>
				<path fill="#FFFFFF" d="M55.435,103.203c-1.457,0-2.642-1.184-2.642-2.64c0-1.459,1.185-2.643,2.642-2.643
					s2.641,1.184,2.641,2.643C58.075,102.019,56.891,103.203,55.435,103.203L55.435,103.203z M55.435,100.148
					c-0.229,0-0.416,0.184-0.416,0.415c0,0.228,0.187,0.412,0.416,0.412c0.228,0,0.414-0.184,0.414-0.412
					C55.849,100.332,55.663,100.148,55.435,100.148L55.435,100.148z"/>
			</g>
			<g>
				<circle fill="#FFFFFF" cx="30.513" cy="71.01" r="1.113"/>
				<path fill="#FFFFFF" d="M30.514,73.652c-1.457,0-2.641-1.184-2.641-2.643c0-1.456,1.185-2.64,2.641-2.64
					c1.457,0,2.64,1.184,2.64,2.64C33.153,72.469,31.97,73.652,30.514,73.652L30.514,73.652z M30.514,70.598
					c-0.229,0-0.415,0.187-0.415,0.412c0,0.231,0.187,0.415,0.415,0.415c0.229,0,0.414-0.184,0.414-0.415
					C30.928,70.784,30.742,70.598,30.514,70.598L30.514,70.598z"/>
			</g>
			<g>
				<path fill="#FFFFFF" d="M13.774,30.406c0,0.614-0.499,1.111-1.114,1.111c-0.615,0-1.114-0.497-1.114-1.111
					c0-0.617,0.498-1.117,1.114-1.117C13.275,29.289,13.774,29.789,13.774,30.406z"/>
				<path fill="#FFFFFF" d="M12.66,33.046c-1.456,0-2.641-1.187-2.641-2.64c0-1.459,1.185-2.643,2.641-2.643
					c1.456,0,2.642,1.184,2.642,2.643C15.301,31.859,14.116,33.046,12.66,33.046L12.66,33.046z M12.66,29.988
					c-0.229,0-0.415,0.187-0.415,0.418c0,0.228,0.186,0.412,0.415,0.412c0.228,0,0.415-0.184,0.415-0.412
					C13.074,30.175,12.888,29.988,12.66,29.988L12.66,29.988z"/>
			</g>
			<g>
				<path fill="#FFFFFF" d="M54.316,22.658c0,0.614-0.499,1.111-1.112,1.111c-0.616,0-1.115-0.497-1.115-1.111
					c0-0.617,0.498-1.114,1.115-1.114C53.817,21.545,54.316,22.042,54.316,22.658z"/>
				<path fill="#FFFFFF" d="M53.203,25.302c-1.457,0-2.642-1.187-2.642-2.643c0-1.459,1.184-2.643,2.642-2.643
					c1.456,0,2.641,1.184,2.641,2.643C55.844,24.114,54.659,25.302,53.203,25.302L53.203,25.302z M53.203,22.243
					c-0.229,0-0.415,0.187-0.415,0.415c0,0.228,0.186,0.412,0.415,0.412c0.228,0,0.414-0.184,0.414-0.412
					C53.617,22.431,53.431,22.243,53.203,22.243L53.203,22.243z"/>
			</g>
			<g>
				<circle fill="#FFFFFF" cx="52.134" cy="9.442" r="1.113"/>
				<path fill="#FFFFFF" d="M52.133,12.084c-1.456,0-2.642-1.187-2.642-2.643s1.186-2.64,2.642-2.64c1.457,0,2.641,1.184,2.641,2.64
					S53.591,12.084,52.133,12.084L52.133,12.084z M52.133,9.027c-0.228,0-0.415,0.187-0.415,0.415c0,0.228,0.187,0.415,0.415,0.415
					c0.229,0,0.415-0.187,0.415-0.415C52.548,9.214,52.362,9.027,52.133,9.027L52.133,9.027z"/>
			</g>
			<g>
				<circle fill="#FFFFFF" cx="12.991" cy="76.386" r="1.114"/>
				<path fill="#FFFFFF" d="M12.991,79.029c-1.457,0-2.641-1.184-2.641-2.643c0-1.456,1.184-2.64,2.641-2.64
					c1.456,0,2.641,1.184,2.641,2.64C15.632,77.845,14.448,79.029,12.991,79.029L12.991,79.029z M12.991,75.974
					c-0.228,0-0.414,0.184-0.414,0.412c0,0.23,0.186,0.415,0.414,0.415c0.228,0,0.414-0.184,0.414-0.415
					C13.405,76.158,13.219,75.974,12.991,75.974L12.991,75.974z"/>
			</g>
			<g>
				<path fill="#FFFFFF" d="M55.449,102.846L29.64,71.396L11.303,29.692l41.901-8.008l0.178,0.035l42.002,8.016l-14.18,40.627
					l-0.101,0.126L55.449,102.846L55.449,102.846z M31.335,70.507l24.087,29.299l24.085-30.378l13.344-38.23l-39.647-7.566
					l-39.187,7.484L31.335,70.507L31.335,70.507z"/>
			</g>
			<g>
				<g>
					<path fill="#FFFFFF" d="M60.977,48.107h-0.029c-0.538,1.146-1.049,2.239-1.542,3.274c-0.49,1.05-0.979,2.061-1.455,3.061
						c-0.579,1.149-1.126,2.266-1.657,3.347c-0.528,1.085-1.061,2.181-1.595,3.289h-1.109l-3.391-6.8l-3.054-6.198h-0.056v16.056
						h-1.332V45.003h1.332c0.702,1.465,1.408,2.909,2.126,4.339c0.711,1.441,1.419,2.879,2.124,4.324
						c0.462,0.965,0.92,1.921,1.376,2.877c0.451,0.953,0.919,1.897,1.402,2.842l1.001-1.997l1.75-3.722
						c0.705-1.444,1.411-2.888,2.124-4.341c0.71-1.459,1.403-2.9,2.069-4.321h1.252v19.134h-1.335V48.107z"/>
				</g>
			</g>
		</g>
	</g>
</g>
</svg>
